<svg xmlns="http://www.w3.org/2000/svg" width="600" height="600" viewBox="0 0 600 600">
    <!-- Definitions !-->
    <defs>
        <circle id="particle" class="mainColor" cx="0" cy="0" r="2" fill="#dc7fff" />
    </defs>
    <!-- Main SVG !-->
    <g id="Border">
        <path fill="none" d="M46.04 169.53h504.794v367.623H46.04z" />
    </g>
    <g class="pContainer"></g>
    <g id="Skyline_for_Svg">
        <g id="Diagram_Area">
            <g id="Skyline_x5F_Logos">
                <g id="Plotly_Cone">
                    <g>
                        <g id="XMLID_4_">
                            <g>
                                <path class="Plotly_colour2" fill="#FFF"
                                    d="M542.92 228.36c0 2.19-.29 4.31-.82 6.33l-24.89 91.81-22.4-89.81v-.01c-.93-2.61-1.43-5.4-1.43-8.32 0-13.68 11.09-24.77 24.77-24.77s24.77 11.09 24.77 24.77z" />
                            </g>
                            <g fill="none" stroke="#000" stroke-miterlimit="10">
                                <path class="Plotly_colour2"
                                    d="M494.81 236.68c-.93-2.61-1.43-5.4-1.43-8.32 0-13.68 11.09-24.77 24.77-24.77s24.77 11.09 24.77 24.77c0 2.19-.29 4.31-.82 6.33M494.81 236.68v.01l22.4 89.81M517.21 326.5l24.89-91.81" />
                            </g>
                        </g>
                    </g>
                </g>
                <g id="Twitter_Cone">
                    <g>
                        <g id="XMLID_3_">
                            <g>
                                <path class="Twitter_colour2" fill="#FFF"
                                    d="M276.56 299.32c0 2.18-.29 4.3-.82 6.32v.01l-24.89 91.8-22.4-89.81c-.93-2.6-1.43-5.4-1.43-8.32 0-13.68 11.09-24.77 24.77-24.77s24.77 11.09 24.77 24.77z" />
                            </g>
                            <g class="Twitter_colour2" fill="none" stroke="#000" stroke-miterlimit="10">
                                <path
                                    d="M228.45 307.64c-.93-2.6-1.43-5.4-1.43-8.32 0-13.68 11.09-24.77 24.77-24.77s24.77 11.09 24.77 24.77c0 2.18-.29 4.3-.82 6.32M228.45 307.64l22.4 89.81M250.85 397.45l24.89-91.8v-.01" />
                            </g>
                        </g>
                    </g>
                </g>
                <g id="Wordpress_Cone">
                    <g>
                        <g id="XMLID_2_">
                            <g>
                                <path class="Wordpress_colour2" fill="#FFF"
                                    d="M417.09 477.83c.93 2.6 1.43 5.4 1.43 8.32 0 13.68-11.09 24.77-24.76 24.77-13.68 0-24.77-11.09-24.77-24.77 0-2.19.28-4.31.81-6.33l24.89-91.81 22.4 89.82z" />
                            </g>
                            <g fill="none" stroke="#000" stroke-miterlimit="10">
                                <path class="Wordpress_colour2"
                                    d="M417.09 477.83c.93 2.6 1.43 5.4 1.43 8.32 0 13.68-11.09 24.77-24.76 24.77-13.68 0-24.77-11.09-24.77-24.77 0-2.19.28-4.31.81-6.33M417.09 477.83l-22.4-89.82M394.69 388.01l-24.89 91.81" />
                            </g>
                        </g>
                    </g>
                </g>
                <g id="LinkedIn_Cone">
                    <g id="XMLID_1_">
                        <g class="LinkedIn_colour2" fill="#FFF">
                            <path d="M216.86 209.53l-24.88 91.8-22.4-89.81z" />
                            <path
                                d="M217.68 203.2c0 2.18-.28 4.31-.81 6.33h-.01l-47.28 1.99c-.93-2.6-1.44-5.4-1.44-8.32 0-13.68 11.09-24.77 24.77-24.77s24.77 11.09 24.77 24.77z" />
                        </g>
                        <g fill="none" stroke="#000" stroke-miterlimit="10">
                            <path
                                d="M169.58 211.52c-.93-2.6-1.44-5.4-1.44-8.32 0-13.68 11.09-24.77 24.77-24.77s24.77 11.09 24.77 24.77c0 2.18-.28 4.31-.81 6.33M169.58 211.52l22.4 89.81M191.98 301.33l24.88-91.8" />
                        </g>
                    </g>
                </g>
                <g id="Instagram_Cone">
                    <g>
                        <g id="XMLID_6_">
                            <g>
                                <path class="Instagram_colour2" fill="#FFF"
                                    d="M408.77 250.9c0 2.18-.28 4.3-.82 6.32l-24.88 91.81-22.4-89.81c-.93-2.6-1.44-5.4-1.44-8.32 0-13.68 11.09-24.77 24.77-24.77s24.77 11.09 24.77 24.77z" />
                            </g>
                            <g fill="none" stroke="#000" stroke-miterlimit="10">
                                <path class="Instagram_colour2"
                                    d="M360.67 259.22c-.93-2.6-1.44-5.4-1.44-8.32 0-13.68 11.09-24.77 24.77-24.77s24.77 11.09 24.77 24.77c0 2.18-.28 4.3-.82 6.32M360.67 259.22l22.4 89.81M383.07 349.03l24.88-91.81" />
                            </g>
                        </g>
                    </g>
                </g>
                <g id="Github_Cone">
                    <g>
                        <g id="XMLID_5_">
                            <g>
                                <path class="Github_colour2" fill="#FFF"
                                    d="M456.56 201.53l-89.81 22.4c-2.6.93-5.4 1.43-8.32 1.43-13.68 0-24.77-11.09-24.77-24.77s11.09-24.77 24.77-24.77c2.18 0 4.29.29 6.32.82h.01l91.8 24.89z" />
                            </g>
                            <g fill="none" stroke="#000" stroke-miterlimit="10">
                                <path class="Github_colour2"
                                    d="M366.75 223.93c-2.6.93-5.4 1.43-8.32 1.43-13.68 0-24.77-11.09-24.77-24.77s11.09-24.77 24.77-24.77c2.18 0 4.29.29 6.32.82M366.75 223.93l89.81-22.4M456.56 201.53l-91.8-24.89h-.01" />
                            </g>
                        </g>
                    </g>
                </g>
                <g id="Twitter" class="twitterLogo">
                    <g>
                        <path fill="#FFF" stroke="#000" stroke-miterlimit="10"
                            d="M246.47 309.835c10.818 0 16.733-8.96 16.733-16.732 0-.255-.005-.508-.017-.76 1.148-.83 2.146-1.866 2.933-3.045-1.055.468-2.19.784-3.378.926 1.214-.728 2.146-1.88 2.586-3.253-1.136.675-2.394 1.164-3.734 1.428-1.073-1.143-2.6-1.858-4.292-1.858-3.247 0-5.88 2.634-5.88 5.88 0 .46.05.91.15 1.34-4.886-.245-9.22-2.585-12.12-6.143-.506.87-.797 1.88-.797 2.956 0 2.04 1.038 3.84 2.617 4.895-.965-.03-1.87-.295-2.663-.735-.002.025-.002.05-.002.075 0 2.848 2.027 5.226 4.718 5.765-.494.135-1.014.207-1.55.207-.38 0-.748-.037-1.106-.106.75 2.337 2.92 4.037 5.493 4.084-2.013 1.578-4.548 2.517-7.304 2.517-.475 0-.943-.027-1.404-.08 2.604 1.667 5.694 2.64 9.015 2.64" />
                    </g>
                </g>
                <g id="Instagram" class="instagramLogo">
                    <g>
                        <g id="post-instagram_1_">
                            <path fill="#FFF" stroke="#000" stroke-miterlimit="10"
                                d="M394.097 238.412H372.79c-1.464 0-2.662 1.198-2.662 2.663v21.306c0 1.466 1.198 2.664 2.663 2.664h21.307c1.465 0 2.663-1.198 2.663-2.663v-21.305c0-1.464-1.2-2.663-2.663-2.663zm-10.653 7.99c2.93 0 5.326 2.397 5.326 5.326s-2.397 5.326-5.326 5.326c-2.93 0-5.326-2.397-5.326-5.326s2.396-5.326 5.326-5.326zm-9.987 15.98c-.4 0-.666-.267-.666-.667v-11.32h2.797c-.133.4-.133.933-.133 1.333 0 4.394 3.595 7.99 7.99 7.99 4.394 0 7.99-3.595 7.99-7.99 0-.4 0-.932-.133-1.332h2.797v11.32c0 .4-.266.665-.666.665h-19.973zm20.64-17.978c0 .4-.266.666-.666.666h-2.662c-.4 0-.666-.266-.666-.666v-2.663c0-.398.266-.665.666-.665h2.663c.4 0 .667.266.667.666v2.664z" />
                        </g>
                    </g>
                </g>
                <g id="LinkedIn" class="linkedinLogo">
                    <path fill="#FFF" stroke="#000" stroke-miterlimit="10"
                        d="M205.168 188.236H180.66c-1.495 0-2.707 1.212-2.707 2.707v24.508c0 1.496 1.212 2.708 2.707 2.708h24.508c1.495 0 2.707-1.212 2.707-2.707v-24.507c0-1.495-1.212-2.707-2.707-2.707zm-17.956 25.836c0 .435-.353.788-.788.788h-3.353c-.434 0-.787-.353-.787-.788v-14.055c0-.435.353-.788.788-.788h3.354c.435 0 .788.352.788.787v14.055zm-2.464-16.168c-1.76 0-3.185-1.426-3.185-3.185s1.426-3.186 3.185-3.186 3.185 1.426 3.185 3.185-1.426 3.184-3.185 3.184zm19.986 16.232c0 .4-.324.724-.724.724h-3.598c-.4 0-.724-.324-.724-.724v-6.593c0-.983.288-4.31-2.57-4.31-2.217 0-2.667 2.277-2.757 3.298v7.605c0 .4-.323.724-.723.724h-3.48c-.4 0-.724-.325-.724-.725v-14.182c0-.4.324-.724.724-.724h3.48c.4 0 .724.323.724.723v1.226c.823-1.235 2.045-2.187 4.647-2.187 5.76 0 5.728 5.382 5.728 8.34v6.803z" />
                </g>
                <g id="Wordpress" class="wordpressLogo" fill="#FFF" stroke="#000" stroke-miterlimit="10">
                    <path
                        d="M408.734 485.322c0-1.547-.24-3.045-.673-4.448l-6.667 17.305c4.392-2.6 7.34-7.383 7.34-12.858zM389.082 499.48c1.484.5 3.073.767 4.728.767 1.73 0 3.386-.293 4.93-.834l-4.556-11.81-5.102 11.877zM379.494 481.104c-.394 1.337-.61 2.753-.61 4.22 0 5.592 3.08 10.465 7.63 13.018l-6.974-17.144-.046-.094z" />
                    <path
                        d="M387.097 480.14l-.64-.028c-1.4-.023-1.245 1.43-1.245 1.43l4.962 12.445 3.336-7.968-1.862-4.743c-.746-1.254-2.565-1.24-2.565-1.24v-.66h10.434l-.016.732-1.085.066c-1.352 0-1.08 1.286-1.08 1.286l4.53 12.095 1.297-3.35c2.302-5.218.882-9.08.882-9.08-2.305-4.744.608-5.425.608-5.425.184-.026.357-.04.527-.05-2.738-3.216-6.816-5.256-11.37-5.256-6.155 0-11.442 3.73-13.723 9.052l6.985-.072.025.765z" />
                    <path
                        d="M410.575 485.273c0 9.25-7.526 16.776-16.773 16.776-9.25 0-16.778-7.528-16.778-16.777 0-9.25 7.526-16.775 16.778-16.775 9.247 0 16.773 7.523 16.773 16.775zm-16.773-17.548c-9.675 0-17.548 7.873-17.548 17.55s7.873 17.544 17.548 17.544c9.673 0 17.54-7.87 17.54-17.546 0-9.676-7.867-17.55-17.54-17.55z" />
                </g>
                <g id="Plotly" class="plotlyLogo" fill="#FFF" stroke="#000" stroke-miterlimit="10">
                    <path fill="#FFFFFF" stroke="#1D1D1B" stroke-miterlimit="10" d="M501.005,228.149c0-4.774,1.689-8.85,5.067-12.228
                    c3.378-3.378,7.454-5.067,12.228-5.067c4.774,0,8.85,1.689,12.228,5.067c3.378,3.378,5.067,7.454,5.067,12.228
                    c0,4.774-1.689,8.85-5.067,12.228c-3.378,3.378-7.454,5.067-12.228,5.067c-4.774,0-8.85-1.689-12.228-5.067
                    C502.694,236.998,501.005,232.923,501.005,228.149L501.005,228.149z M502.896,228.149c0,4.234,1.509,7.859,4.526,10.877
                    c3.018,3.018,6.643,4.526,10.877,4.526c4.234,0,7.859-1.509,10.877-4.526c3.018-3.018,4.526-6.643,4.526-10.877
                    s-1.509-7.859-4.526-10.877c-3.018-3.018-6.643-4.526-10.877-4.526c-4.234,0-7.859,1.509-10.877,4.526
                    C504.405,220.289,502.896,223.915,502.896,228.149L502.896,228.149z M507.761,231.864c-0.09-0.09-0.09-0.18,0-0.27
                    c0.18-0.18,0.405-0.248,0.676-0.203c0.27,0.045,0.428,0.09,0.473,0.135c0.315,0.135,0.664,0.439,1.047,0.912
                    c0.383,0.473,0.687,0.799,0.912,0.98c1.081,0.901,2.184,0.968,3.31,0.203c0.09-0.315,0.236-0.585,0.439-0.811
                    c0.203-0.225,0.394-0.383,0.574-0.473c0.18-0.09,0.495-0.225,0.946-0.405c-1.486-0.135-2.691-0.394-3.614-0.777
                    c-0.923-0.383-1.655-0.867-2.196-1.452c-0.721-0.811-1.16-1.869-1.317-3.175c-0.158-1.306-0.056-2.5,0.304-3.581
                    c0.27-0.676,0.653-1.284,1.148-1.824c-0.36-1.126-0.293-2.41,0.203-3.851c1.441,0.09,2.747,0.585,3.918,1.486
                    c2.252-0.585,4.594-0.608,7.026-0.068c0.315-0.225,0.799-0.507,1.452-0.844c0.653-0.338,1.475-0.529,2.466-0.574
                    c0.18,0.495,0.304,1.081,0.372,1.756s0.034,1.306-0.101,1.892c1.036,1.081,1.576,2.522,1.621,4.324
                    c0,1.441-0.248,2.635-0.743,3.581c-0.495,0.946-1.374,1.734-2.635,2.364c-0.856,0.405-1.982,0.653-3.378,0.743
                    c0.631,0.315,1.092,0.642,1.385,0.98s0.484,0.867,0.574,1.588v2.128c0,0,0.022,0.687,0.068,2.061
                    c0.135,0.225,0.293,0.417,0.473,0.574c0.18,0.158,0.338,0.27,0.473,0.338c0.135,0.068,0.18,0.169,0.135,0.304
                    c-0.045,0.135-0.225,0.203-0.54,0.203c-0.766,0-1.374-0.27-1.824-0.811c-0.135-0.225-0.203-0.495-0.203-0.811v-3.243
                    c0-0.36-0.09-0.619-0.27-0.777c-0.18-0.158-0.36-0.259-0.54-0.304v4.256c0,0.766,0.09,1.261,0.27,1.486
                    c0.18,0.225,0.293,0.45,0.338,0.676c0.045,0.045,0.011,0.079-0.101,0.101c-0.113,0.023-0.304-0.011-0.574-0.101
                    c-0.586-0.135-0.991-0.439-1.216-0.912c-0.225-0.473-0.338-0.98-0.338-1.52v-4.189h-0.878v4.189c0,0.54-0.113,1.058-0.338,1.554
                    c-0.315,0.631-0.901,0.968-1.757,1.013c-0.135-0.045-0.203-0.09-0.203-0.135c0.045-0.045,0.18-0.27,0.405-0.676
                    c0.045-0.09,0.101-0.27,0.169-0.54c0.068-0.27,0.101-0.585,0.101-0.946v-4.256c-0.18,0.045-0.349,0.146-0.507,0.304
                    c-0.158,0.158-0.237,0.417-0.237,0.777v3.243c0,0.315-0.068,0.585-0.203,0.811c-0.405,0.54-1.013,0.811-1.824,0.811
                    c-0.315,0-0.495-0.068-0.54-0.203c-0.045-0.09-0.034-0.169,0.034-0.236s0.169-0.146,0.304-0.236s0.225-0.158,0.27-0.203
                    c0.18-0.135,0.315-0.315,0.405-0.54c0.135-0.18,0.169-0.653,0.101-1.419s-0.079-1.261-0.034-1.486
                    c-1.171,0.405-2.365,0.203-3.581-0.608c-0.36-0.36-0.721-0.878-1.081-1.554C509.112,233.125,508.571,232.54,507.761,231.864
                    L507.761,231.864z"/>
                </g>
                <g id="Github" class="githubLogo">
                    <g id="Layer_118">
                        <g id="Codepen_2_">
                            <g id="_Group__2_" stroke="#000" stroke-width="1.001" stroke-linecap="round"
                                stroke-linejoin="round">
                                <path id="_Path__2_" fill="#FFF"
                                    d="M359.99 217.913c-1.015.002-2.007-.296-2.852-.857l-13.68-9.114c-.864-.577-1.384-1.547-1.386-2.586v-10.688c.002-1.04.522-2.01 1.387-2.586l13.678-9.114c.842-.572 1.834-.88 2.85-.888 1.015-.002 2.007.296 2.852.857l13.68 9.13c.864.577 1.384 1.547 1.386 2.586v10.688c-.002 1.04-.522 2.01-1.387 2.587l-13.68 9.114c-.843.567-1.835.87-2.85.873z" />
                                <path id="_Path_2_2_" fill="#FFF" d="M362.326 213.24v-7.79l4.674-3.117 6.232 3.895z" />
                                <path id="_Path_3_2_" fill="#FFF" d="M357.652 213.24v-7.79l-4.674-3.117-6.232 3.895z" />
                                <path id="_Path_4_2_" fill="none" d="M357.652 186.754v7.79l-4.674 3.115-6.232-3.896z" />
                                <path id="_Path_5_2_" fill="#FFF" d="M362.326 186.754v7.79l4.674 3.115 6.232-3.896z" />
                                <path id="_Path_6_2_" fill="#FFF" d="M374.79 202.333l-3.895-2.337 3.895-2.337z" />
                                <path id="_Path_7_2_" fill="none" d="M345.188 197.66l3.895 2.336-3.895 2.337z" />
                                <path id="_Path_8_2_" fill="#FFF"
                                    d="M359.99 203.112l4.673-3.116-4.674-3.116-4.675 3.116z" />
                            </g>
                        </g>
                    </g>
                </g>
            </g>
            <g id="Fireworks_Trails_Group">
                <g id="Trail_5">
                    <path class="Firework_Trail_5" fill="none" stroke="#000" stroke-miterlimit="10"
                        d="M306.397 180.304c17.703 19.98 27.976 50.273 79.033 236.142" />
                </g>
                <g id="Trail_4">
                    <path class="Firework_Trail_4" fill="none" stroke="#000" stroke-miterlimit="10"
                        d="M130.982 208c-70.816 45.066-3.215 148.956-16.907 219.15" />
                </g>
                <g id="Trail_3">
                    <path class="Firework_Trail_3" fill="none" stroke="#000" stroke-miterlimit="10"
                        d="M267.79 215.487c-17.85 21.493-65.604 84.12-70.336 128.846" />
                </g>
                <g id="Trail_2">
                    <path class="Firework_Trail_2" fill="none" stroke="#000" stroke-miterlimit="10"
                        d="M405.135 188c-9.582 63.928 9.076 165.76 1.807 242.135" />
                </g>
                <g id="Trail_1">
                    <path class="Firework_Trail_1" fill="none" stroke="#000" stroke-miterlimit="10"
                        d="M169.914 199c0 75.4-64.297 180.705-18.923 232.5" />
                </g>
                <path fill="none" stroke="#000" stroke-width="2.835" stroke-miterlimit="10" d="M473 423l-2-67" />
            </g>
            <g id="London_Skyline">
                <g id="Milenium_wheel" class="milleniumWheel">
                    <g id="Layer_40" fill="none">
                        <path stroke="#000" stroke-miterlimit="10"
                            d="M382.893 350.063l23.812 81.437M382.893 350.063l-23.23 81.437" />
                        <circle cx="382.289" cy="350.083" r="5.75" />
                    </g>
                    <g id="Mil_Wheel_Main">
                        <g id="Inner_x5F_ring">
                            <circle class="MW_Capsules" fill="none" stroke="#000" stroke-miterlimit="10" cx="382.893"
                                cy="350.063" r="60.979" />
                        </g>
                        <g id="Outer_x5F_ring">
                            <circle class="MW_Capsules" fill="none" stroke="#000" stroke-miterlimit="10" cx="382.893"
                                cy="350.063" r="66.979" />
                        </g>
                        <g id="Layer_39_copy_3" />
                        <g id="Layer_41" />
                        <g class="Instagram_colour" id="Capsules" fill="none" stroke="#000" stroke-miterlimit="10">
                            <circle class="MW_Capsules" cx="423.123" cy="290.673" r="7.514" />
                            <circle class="MW_Capsules" cx="388.039" cy="278.514" r="7.514" />
                            <circle class="MW_Capsules" cx="351.575" cy="285.527" r="7.514" />
                            <circle class="MW_Capsules" cx="323.503" cy="309.832" r="7.514" />
                            <circle class="MW_Capsules" cx="311.344" cy="344.917" r="7.514" />
                            <circle class="MW_Capsules" cx="318.357" cy="381.38" r="7.514" />
                            <circle class="MW_Capsules" cx="342.662" cy="409.452" r="7.514" />
                            <circle class="MW_Capsules" cx="377.747" cy="421.611" r="7.514" />
                            <circle class="MW_Capsules" cx="414.21" cy="414.598" r="7.514" />
                            <circle class="MW_Capsules" cx="442.282" cy="390.293" r="7.514" />
                            <circle class="MW_Capsules" cx="454.441" cy="355.208" r="7.514" />
                            <circle class="MW_Capsules" cx="447.428" cy="318.745" r="7.514" />

                        </g>
                        <g id="Centre">
                            <circle fill="none" stroke="#000" stroke-miterlimit="10" cx="382.893" cy="350.063"
                                r="2.552" />
                        </g>
                    </g>
                </g>
                <g id="Big_Ben" class="totalParliment">
                    <g id="Layer_3">
                        <path class="LinkedIn_colour" fill="#FFF" stroke="#000" stroke-width="2" stroke-miterlimit="10"
                            d="M176.54 336h34v101.59h-34z" />
                    </g>
                    <g id="Layer_4" fill="#FFF" stroke="#000" stroke-width="2" stroke-miterlimit="10">
                        <path class="LinkedIn_colour" d="M173.54 292.5h39v40.25h-39zM174.622 332.75h37.5V336h-37.5z" />
                        <path d="M177.54 296.625h31.874v32.625H177.54z" />
                    </g>
                    <g id="Layer_5" fill="none" stroke="#000" stroke-width="2" stroke-miterlimit="10">
                        <circle cx="193.539" cy="313.614" r="13.25" />
                        <circle cx="193.625" cy="313.163" r="10.413" />
                    </g>
                    <g id="Layer_6">
                        <circle fill="none" stroke="#000" stroke-width="2" stroke-miterlimit="10" cx="193.726"
                            cy="313.688" r="2.188" />
                    </g>
                    <g id="Hands" fill="none" stroke="#000" stroke-width="2" stroke-miterlimit="10">
                        <path id="Big_hand" d="M193.726 313.688L201.18 306" />
                        <path id="Small_hand" d="M193.726 313.688l-4.687-4.563" />
                    </g>
                    <g id="Layer_8">
                        <path class="LinkedIn_colour" fill="#FFF" stroke="#000" stroke-width="2" stroke-miterlimit="10"
                            d="M175.04 292.5l6.374-12.25V265h4.25l7.375-23.375v-12h.874v12l7.625 23.25h3.874v14.5l6.375 13.125z" />
                    </g>
                    <g id="Layer_9" fill="none" stroke="#000" stroke-width="2" stroke-miterlimit="10">
                        <path
                            d="M182.29 339.25v21.625M188.414 339.25v21.625M194.54 339.25v21.625M199.664 339.25v21.625M205.54 339.25v21.625" />
                    </g>
                    <g id="Layer_9_copy" fill="none" stroke="#000" stroke-width="2" stroke-miterlimit="10">
                        <path
                            d="M182 368.375V390M188.125 368.375V390M194.25 368.375V390M199.375 368.375V390M205.25 368.375V390" />
                    </g>
                    <g id="Layer_9_copy_2" fill="none" stroke="#000" stroke-width="2" stroke-miterlimit="10">
                        <path
                            d="M181.914 398.25v21.625M188.04 398.25v21.625M194.164 398.25v21.625M199.29 398.25v21.625M205.164 398.25v21.625" />
                    </g>
                </g>
                <g id="Tower_Bridge">
                    <g id="Layer_14">
                        <path class="Twitter_colour" fill="#FFF" stroke="#000" stroke-width="2" stroke-miterlimit="10"
                            d="M259.79 376.25h83.5V370h-37.5l-4.25-2.75-4.75 3.25-37-.5z" />
                    </g>
                    <g id="Left_x5F_bridge">
                        <g id="Layer_17">
                            <g id="Layer_13">
                                <path class="Twitter_colour" fill="#FFF" stroke="#000" stroke-width="2"
                                    stroke-miterlimit="10" d="M242.04 364.25h17.75V382h-17.75z" />
                            </g>
                            <g id="Layer_15">
                                <path class="Twitter_colour" fill="#FFF" stroke="#000" stroke-width="2"
                                    stroke-miterlimit="10" d="M244.29 382h13.75v33.5h-13.75z" />
                            </g>
                        </g>
                        <g id="Layer_18">
                            <path class="Twitter_colour" fill="#FFF" stroke="#000" stroke-miterlimit="10"
                                d="M242.04 364.25h-2.626l2.625-1.875.624-2.625 1.625-13.25.75 6.875 1.624 4.125 3.625-15.375v-8.375h.874v8.375l4.25 14.625.875-2.625.874-7.75.875 8 1.75 6.5v1.25l2.874 2.125h-2.875z" />
                        </g>
                        <g id="Layer_19" fill="none" stroke="#000" stroke-miterlimit="10">
                            <path
                                d="M246.664 370.125l.125 7M251.1 370.125l.126 7M255.99 370.125l.124 7M244.29 387.375l13.75-.375M244.29 390.375l13.75-.125M244.29 401.125l13.75-.25M246.79 403.25v1.25M255.164 403.25v1.25M249.414 403.875h2.75V413h-2.75z" />
                        </g>
                        <g id="Layer_20" fill="#FFF" stroke="#000" stroke-width="2" stroke-miterlimit="10">
                            <path class="Twitter_colour"
                                d="M210.54 416h54.124v5h-28.25l-.125-2.5h-25.75zM233.414 421h34.375v10.5h-34.376z" />
                        </g>
                        <g id="Layer_21">
                            <path class="Twitter_colour" fill="#FFF" stroke="#000" stroke-width="2"
                                stroke-miterlimit="10" d="M264.664 416l33.125-15.125 1.624 2.375L267.79 421h-3.126z" />
                        </g>
                        <g id="Layer_23">
                            <path fill="none" stroke="#000" stroke-width="2" stroke-miterlimit="10"
                                d="M210.54 402.125s29.644-14.875 31.196-22.938" />
                        </g>
                        <g id="Layer_22">
                            <path fill="none" stroke="#000" stroke-width="2" stroke-miterlimit="10"
                                d="M210.54 416h33.75v-34h-2.25v-3.25s-16.626 24.5-31.5 29.688" />
                        </g>
                        <g id="Layer_24" fill="none" stroke="#000" stroke-width="2" stroke-miterlimit="10">
                            <path
                                d="M212.952 400.875V415.5M220.322 396.808V416M227.414 392.505V415.5M233.993 387.94V416" />
                        </g>
                    </g>
                    <g id="Layer_16_copy">
                        <g id="Layer_17_copy">
                            <g id="Layer_13_copy" />
                            <g id="Layer_15_copy" />
                        </g>
                        <g id="Layer_18_copy" />
                        <g id="Layer_19_copy" />
                        <g id="Layer_20_copy" />
                        <g id="Layer_21_copy" />
                        <g id="Layer_23_copy" />
                        <g id="Layer_22_copy" />
                        <g id="Right_x5F_bridge" stroke="#000" stroke-miterlimit="10">
                            <path class="Twitter_colour" fill="#FFF" stroke-width="2"
                                d="M344.164 364.25h17.75V382h-17.75zM345.914 382h13.75v33.5h-13.75z" />
                            <path class="Twitter_colour" fill="#FFF"
                                d="M361.914 364.25h2.625l-2.626-1.875-.625-2.625-1.626-13.25-.75 6.875-1.625 4.125-3.626-15.375v-8.375h-.875v8.375l-4.25 14.625-.876-2.625-.875-7.75-.876 8-1.75 6.5v1.25l-2.875 2.125h2.874z" />
                            <path class="Twitter_colour" fill="none"
                                d="M357.29 370.125l-.126 7M352.85 370.125l-.124 7M347.963 370.125l-.125 7M359.664 387.375l-13.75-.375M359.664 390.375l-13.75-.125M359.664 401.125l-13.75-.25M357.164 403.25v1.25M348.79 403.25v1.25" />
                            <path class="Twitter_colour" fill="#FFF" d="M351.79 403.875h2.75V413h-2.75z" />
                            <path class="Twitter_colour" fill="#FFF" stroke-width="2"
                                d="M393.414 416H339.29v5h28.25l.124-2.5h25.75zM336.164 421h34.375v10.5h-34.376zM339.29 416l-33.126-15.125-1.625 2.375L336.163 421h3.125z" />
                            <path fill="none" stroke-width="2"
                                d="M393.414 402.125s-29.645-14.875-31.198-22.938M393.414 416h-33.75v-34h2.25v-3.25s16.625 24.5 31.5 29.688M391 400.875V415.5M383.63 396.808V416M376.54 392.505V415.5M369.96 387.94V416" />
                        </g>
                    </g>
                </g>
                <g id="Parliment" class="totalParliment">
                    <g id="Build">
                        <path class="LinkedIn_colour" id="Main_x5F_layer_3_" fill="#FFF" stroke="#000" stroke-width="2"
                            stroke-miterlimit="10" d="M156.54 376h20v61.59h-20z" />
                        <g id="Layer_46">
                            <path class="LinkedIn_colour" fill="#FFF" stroke="#000" stroke-width="2"
                                stroke-miterlimit="10" d="M156.54 376l3-10 1.75 5h9.5l1.75-5 3 10z" />
                        </g>
                        <g id="Layer_47" fill="none" stroke="#000" stroke-width="2" stroke-miterlimit="10">
                            <path class="LinkedIn_colour"
                                d="M161.79 406.172v5.5M169.54 406.172v6.75M162.164 418.078v5.5M169.914 418.078v6.75M159.54 402.125h14M159.54 414.25h14" />
                        </g>
                    </g>
                    <g id="Build_copy">
                        <path class="LinkedIn_colour" id="Main_x5F_layer_2_" fill="#FFF" stroke="#000" stroke-width="2"
                            stroke-miterlimit="10" d="M61.54 375.08h20v61.59h-20z" />
                        <g id="Layer_46_copy">
                            <path class="LinkedIn_colour" fill="#FFF" stroke="#000" stroke-width="2"
                                stroke-miterlimit="10" d="M61.54 375.08l3-10 1.75 5h9.5l1.75-5 3 10z" />
                        </g>
                        <g id="Layer_47_copy" fill="none" stroke="#000" stroke-width="2" stroke-miterlimit="10">
                            <path
                                d="M66.79 405.25v5.5M74.54 405.25V412M67.164 417.158v5.5M74.914 417.158v6.75M64.54 401.204h14M64.54 413.33h14" />
                        </g>
                        <g id="Layer_51" fill="none" stroke="#000" stroke-width="2" stroke-miterlimit="10">
                            <path d="M156.914 388.25h19.625M61.726 387.94H81.35" />
                        </g>
                    </g>
                    <g class="LinkedIn_colour" id="Inter_Build" fill="#FFF" stroke="#000" stroke-width="2"
                        stroke-miterlimit="10">
                        <path id="main_x5F_right_2_" d="M81.35 387.94h14.44v49.65H81.35z" />
                        <path id="main_x5F_left_2_" d="M142.79 387.94h13.75v49.65h-13.75z" />
                    </g>
                    <g id="Middle_Build">
                        <path class="LinkedIn_colour" id="Mid_x5F_main_x5F_layer" fill="#FFF" stroke="#000"
                            stroke-width="2" stroke-miterlimit="10" d="M95.79 376h47v61.59h-47z" />
                        <g id="Layer_54" />
                        <path class="LinkedIn_colour" fill="#FFF" stroke="#000" stroke-width="2" stroke-miterlimit="10"
                            d="M95.79 376l2.75-10 2.25 5h10l1.75-5 3 10h7.75l2.75-10 2 5h9.25l2.5-5.92 3 10" />
                        <g id="Layer_55" fill="none" stroke="#000" stroke-width="2" stroke-miterlimit="10">
                            <path
                                d="M101.29 378.75v5.75M108.29 378.75v5.75M115.54 378.75v5.75M123.04 378.75v5.75M129.54 378.75v5.75M136.54 378.75v5.75M88.476 392.415v5.75M67.164 391.79v5.75M75.997 391.79v5.75M66.622 378.75v5.75M75.455 378.75v5.75M161.893 391.895v5.75M170.726 391.895v5.75M161.35 378.855v5.75M170.184 378.855v5.75M108.414 390.656v5.75M115.664 390.656v5.75M123.164 390.656v5.75M129.664 390.656v5.75M136.664 390.656v5.75M88.664 407.18v5.75M108.6 405.422v5.75M115.85 405.422v5.75M123.35 405.422v5.75M129.85 405.422v5.75M136.85 405.422v5.75M88.79 419.087v5.75M101.132 392.71v5.75M101.32 407.477v5.75M101.445 419.383v5.75M149.476 391.79v5.75M149.664 406.556v5.75M149.79 418.462v5.75M108.726 417.328v5.75M115.976 417.328v5.75M123.476 417.328v5.75M129.976 417.328v5.75M136.976 417.328v5.75" />
                        </g>
                        <g id="Layer_131">
                            <path fill="none" stroke="#000" stroke-width="2" stroke-miterlimit="10"
                                d="M95.79 387.94h47" />
                        </g>
                    </g>
                </g>
                <g id="Shard">
                    <g id="Main_Layer">
                        <path class="Github_colour" fill="#FFF" stroke="#000" stroke-width="2" stroke-miterlimit="10"
                            d="M415.608 441.446l40.737-264.642 40.737 264.642z" />
                    </g>
                    <g id="Division_Line" fill="none" stroke="#000" stroke-width="2" stroke-miterlimit="10">
                        <path d="M447.428 441.446l14.527-180.383M461.955 261.063l6.387-6.32" />
                    </g>
                    <g id="extrashard">
                        <path class="Github_colour" fill="#FFF" stroke="#000" stroke-width="1.5" stroke-miterlimit="10"
                            d="M463.015 194.754l7.968-12.052 5.18 102.825z" />
                    </g>
                    <g id="Airplane_x5F_light">
                        <circle fill="none" stroke="#000" stroke-miterlimit="10" cx="462.576" cy="186.236" r="3.211" />
                    </g>
                </g>
                <g id="CityHall">
                    <path class="Wordpress_colour" id="Main_x5F_layer_1_" fill="#FFF" stroke="#000" stroke-width="2"
                        stroke-miterlimit="10"
                        d="M425.456 427.256c1.383-1.644 2.667-3.5 3.81-5.595 1.2-2.196 2.243-4.656 3.087-7.41.762-2.49 1.36-5.22 1.76-8.21.253-1.896.484-3.822.685-5.763.408-3.95.688-7.96.758-11.877.072-4.026-.077-7.954-.537-11.62-.373-2.974-.95-5.776-1.776-8.32-.263-.807-.55-1.59-.866-2.343-2.85-6.82-7.9-11.266-16.266-11.266-20.987 0-49.25 28.297-53 54-1.153 7.907-1.585 13.9-.71 18.403" />
                    <g id="CHBase">
                        <path class="Wordpress_colour" fill="#FFF" stroke="#000" stroke-width="2" stroke-miterlimit="10"
                            d="M366.306 427.253h57.28v10.125h-57.28z" />
                    </g>
                    <g id="Detail" stroke="#000" stroke-miterlimit="10">
                        <path fill="none"
                            d="M396.115 361.662l-9.568 13.59M386.547 375.253h8.4M394.946 375.253l-12.65 16.625M382.297 391.878h10.375M392.672 391.878l-17.125 17.125M375.547 409.003h15.2M390.746 409.003l-18.1 18.1M392.672 368.457h40.57M396.115 361.662h33.823M394.946 375.253h39.86M388.62 383.565h46.906M392.672 391.878h42.768M384.667 399.882h50.13M390.746 409.003h42.792M382.297 418.052h48.692" />
                        <path fill="none" stroke-width=".5"
                            d="M372.647 427.102l-9.263-19.877M379.736 420.013l-12.275-25.388M382.297 402.253l-8.698-18.688M386.98 385.723l-5.284-11.11M390.122 370.175l-1.5-3.013M362.403 427.253l18.06-18.25M362.65 412.247l20.497-20.37M366.836 396.042l20.648-20.79M363.91 404.757l29.428-29.504M361.938 420.013l28.184-28.135M367.46 427.102l18.128-18.1M370.802 388.218l21.87-21.665M376.524 423.224l-10.96-23.948M367.46 427.102l-4.81-10.488M378.624 405.925l-7.58-16.436M386.547 398.003l-9.045-19.457M390.122 381.593l-5.455-10.876" />
                        <path fill="#FFF" d="M366.306 427.253h57.28" />
                        <path fill="none" d="M366.306 427.253h-4.368M423.586 427.253h1.866" />
                    </g>
                </g>
                <g id="Strata" class="strataTotal">
                    <g id="Main_x5F_layer" stroke="#000" stroke-miterlimit="10">
                        <path class="Plotly_colour" fill="#FFF" stroke-width="2"
                            d="M545.333 278.01c0 14.323-55.333 13.68-55.333 0v161.03h55.333V278.01z" />
                        <path fill="none" d="M490 309.832h55.333" />
                        <circle fill="#FFF" cx="500.031" cy="296.688" r="7.792" />
                        <circle fill="#FFF" cx="517.698" cy="300.063" r="7.792" />
                        <circle fill="#FFF" cx="535.281" cy="296.688" r="7.792" />
                    </g>
                    <g id="Fan_x5F_cowling" />
                    <g id="Windows_2_" fill="#FFF" stroke="#000" stroke-miterlimit="10">
                        <path
                            d="M490 312h2.208v3.5H490zM492.208 312h2.208v3.5h-2.208zM494.417 312h2.208v3.5h-2.208zM496.687 312h2.208v3.5h-2.208zM501.104 312h2.208v3.5h-2.208zM505 312h2.208v3.5H505zM507.208 312h2.208v3.5h-2.208zM509.417 312h2.208v3.5h-2.208zM511.688 312h2.208v3.5h-2.208zM516.104 312h2.208v3.5h-2.208zM520.167 312h2.208v3.5h-2.208zM522.375 312h2.208v3.5h-2.208zM524.583 312h2.208v3.5h-2.207zM526.854 312h2.208v3.5h-2.208zM531.27 312h2.21v3.5h-2.21zM536.438 312h2.208v3.5h-2.208zM538.646 312h2.208v3.5h-2.208zM540.854 312h2.208v3.5h-2.208zM543.125 312h2.208v3.5h-2.208zM492.917 317.5h2.208v3.5h-2.208zM496.812 317.5h2.208v3.5h-2.208z" />
                        <path d="M499.02 317.5h2.21v3.5h-2.21z" />
                        <path
                            d="M501.23 317.5h2.207v3.5h-2.208zM503.5 317.5h2.208v3.5H503.5zM507.917 317.5h2.208v3.5h-2.208zM511.98 317.5h2.207v3.5h-2.208zM514.188 317.5h2.208v3.5h-2.208zM516.396 317.5h2.208v3.5h-2.208zM518.667 317.5h2.208v3.5h-2.208zM523.083 317.5h2.208v3.5h-2.207zM528.25 317.5h2.208v3.5h-2.208zM530.458 317.5h2.208v3.5h-2.208zM532.667 317.5h2.208v3.5h-2.208zM536.438 317.5h2.208v3.5h-2.208zM543.125 317.5h2.208v3.5h-2.208zM540.854 317.5h2.208v3.5h-2.208zM490 317.5h2.208v3.5H490zM490 322.75h2.208v3.5H490zM492.208 322.75h2.208v3.5h-2.208zM494.417 322.75h2.208v3.5h-2.208zM496.687 322.75h2.208v3.5h-2.208zM501.104 322.75h2.208v3.5h-2.208zM505 322.75h2.208v3.5H505zM507.208 322.75h2.208v3.5h-2.208zM509.417 322.75h2.208v3.5h-2.208zM511.688 322.75h2.208v3.5h-2.208zM516.104 322.75h2.208v3.5h-2.208zM520.167 322.75h2.208v3.5h-2.208zM522.375 322.75h2.208v3.5h-2.208zM524.583 322.75h2.208v3.5h-2.207zM526.854 322.75h2.208v3.5h-2.208zM531.27 322.75h2.21v3.5h-2.21zM536.438 322.75h2.208v3.5h-2.208zM538.646 322.75h2.208v3.5h-2.208zM540.854 322.75h2.208v3.5h-2.208zM543.125 322.75h2.208v3.5h-2.208zM492.917 328.25h2.208v3.5h-2.208zM496.812 328.25h2.208v3.5h-2.208z" />
                        <path d="M499.02 328.25h2.21v3.5h-2.21z" />
                        <path
                            d="M501.23 328.25h2.207v3.5h-2.208zM503.5 328.25h2.208v3.5H503.5zM507.917 328.25h2.208v3.5h-2.208zM511.98 328.25h2.207v3.5h-2.208zM514.188 328.25h2.208v3.5h-2.208zM516.396 328.25h2.208v3.5h-2.208zM518.667 328.25h2.208v3.5h-2.208zM523.083 328.25h2.208v3.5h-2.207zM528.25 328.25h2.208v3.5h-2.208zM530.458 328.25h2.208v3.5h-2.208zM532.667 328.25h2.208v3.5h-2.208zM536.438 328.25h2.208v3.5h-2.208zM543.125 328.25h2.208v3.5h-2.208zM540.854 328.25h2.208v3.5h-2.208zM490 328.25h2.208v3.5H490zM490 334h2.208v3.5H490zM492.208 334h2.208v3.5h-2.208zM494.417 334h2.208v3.5h-2.208zM496.687 334h2.208v3.5h-2.208zM501.104 334h2.208v3.5h-2.208zM505 334h2.208v3.5H505zM507.208 334h2.208v3.5h-2.208zM509.417 334h2.208v3.5h-2.208zM511.688 334h2.208v3.5h-2.208zM516.104 334h2.208v3.5h-2.208zM520.167 334h2.208v3.5h-2.208zM522.375 334h2.208v3.5h-2.208zM524.583 334h2.208v3.5h-2.207zM526.854 334h2.208v3.5h-2.208zM531.27 334h2.21v3.5h-2.21zM536.438 334h2.208v3.5h-2.208zM538.646 334h2.208v3.5h-2.208zM540.854 334h2.208v3.5h-2.208zM543.125 334h2.208v3.5h-2.208zM492.917 339.5h2.208v3.5h-2.208zM496.812 339.5h2.208v3.5h-2.208z" />
                        <path d="M499.02 339.5h2.21v3.5h-2.21z" />
                        <path
                            d="M501.23 339.5h2.207v3.5h-2.208zM503.5 339.5h2.208v3.5H503.5zM507.917 339.5h2.208v3.5h-2.208zM511.98 339.5h2.207v3.5h-2.208zM514.188 339.5h2.208v3.5h-2.208zM516.396 339.5h2.208v3.5h-2.208zM518.667 339.5h2.208v3.5h-2.208zM523.083 339.5h2.208v3.5h-2.207zM528.25 339.5h2.208v3.5h-2.208zM530.458 339.5h2.208v3.5h-2.208zM532.667 339.5h2.208v3.5h-2.208zM536.438 339.5h2.208v3.5h-2.208zM543.125 339.5h2.208v3.5h-2.208zM540.854 339.5h2.208v3.5h-2.208zM490 339.5h2.208v3.5H490zM490 344.754h2.208v3.5H490zM492.208 344.754h2.208v3.5h-2.208zM494.417 344.754h2.208v3.5h-2.208zM496.687 344.754h2.208v3.5h-2.208zM501.104 344.754h2.208v3.5h-2.208zM505 344.754h2.208v3.5H505zM507.208 344.754h2.208v3.5h-2.208zM509.417 344.754h2.208v3.5h-2.208zM511.688 344.754h2.208v3.5h-2.208zM516.104 344.754h2.208v3.5h-2.208zM520.167 344.754h2.208v3.5h-2.208zM522.375 344.754h2.208v3.5h-2.208zM524.583 344.754h2.208v3.5h-2.207zM526.854 344.754h2.208v3.5h-2.208zM531.27 344.754h2.21v3.5h-2.21zM536.438 344.754h2.208v3.5h-2.208zM538.646 344.754h2.208v3.5h-2.208zM540.854 344.754h2.208v3.5h-2.208zM543.125 344.754h2.208v3.5h-2.208zM492.917 350.254h2.208v3.5h-2.208zM496.812 350.254h2.208v3.5h-2.208z" />
                        <path d="M499.02 350.254h2.21v3.5h-2.21z" />
                        <path
                            d="M501.23 350.254h2.207v3.5h-2.208zM503.5 350.254h2.208v3.5H503.5zM507.917 350.254h2.208v3.5h-2.208zM511.98 350.254h2.207v3.5h-2.208zM514.188 350.254h2.208v3.5h-2.208zM516.396 350.254h2.208v3.5h-2.208zM518.667 350.254h2.208v3.5h-2.208zM523.083 350.254h2.208v3.5h-2.207zM528.25 350.254h2.208v3.5h-2.208zM530.458 350.254h2.208v3.5h-2.208zM532.667 350.254h2.208v3.5h-2.208zM536.438 350.254h2.208v3.5h-2.208zM543.125 350.254h2.208v3.5h-2.208zM540.854 350.254h2.208v3.5h-2.208zM490 350.254h2.208v3.5H490zM489.833 356.31h2.208v3.5h-2.207zM492.042 356.31h2.208v3.5h-2.208zM494.25 356.31h2.208v3.5h-2.208zM496.52 356.31h2.21v3.5h-2.21zM500.938 356.31h2.208v3.5h-2.208zM504.833 356.31h2.208v3.5h-2.207zM507.042 356.31h2.208v3.5h-2.208zM509.25 356.31h2.208v3.5h-2.208zM511.52 356.31h2.21v3.5h-2.21zM515.938 356.31h2.208v3.5h-2.208zM520 356.31h2.208v3.5H520zM522.208 356.31h2.208v3.5h-2.208zM524.417 356.31h2.208v3.5h-2.208zM526.688 356.31h2.208v3.5h-2.208zM531.104 356.31h2.208v3.5h-2.208zM536.27 356.31h2.21v3.5h-2.21z" />
                        <path
                            d="M538.48 356.31h2.207v3.5h-2.208zM540.688 356.31h2.208v3.5h-2.208zM542.958 356.31h2.208v3.5h-2.208zM492.75 361.81h2.208v3.5h-2.208zM496.646 361.81h2.208v3.5h-2.208z" />
                        <path
                            d="M498.854 361.81h2.208v3.5h-2.208zM501.063 361.81h2.208v3.5h-2.207zM503.333 361.81h2.208v3.5h-2.207zM507.75 361.81h2.208v3.5h-2.208zM511.813 361.81h2.208v3.5h-2.207z" />
                        <path d="M514.02 361.81h2.21v3.5h-2.21z" />
                        <path
                            d="M516.23 361.81h2.207v3.5h-2.208zM518.5 361.81h2.208v3.5H518.5zM522.917 361.81h2.208v3.5h-2.208zM528.083 361.81h2.208v3.5h-2.207zM530.292 361.81h2.208v3.5h-2.208zM532.5 361.81h2.208v3.5H532.5zM536.27 361.81h2.21v3.5h-2.21zM542.958 361.81h2.208v3.5h-2.208zM540.688 361.81h2.208v3.5h-2.208zM489.833 361.81h2.208v3.5h-2.207zM489.833 367.06h2.208v3.5h-2.207zM492.042 367.06h2.208v3.5h-2.208zM494.25 367.06h2.208v3.5h-2.208zM496.52 367.06h2.21v3.5h-2.21zM500.938 367.06h2.208v3.5h-2.208zM504.833 367.06h2.208v3.5h-2.207zM507.042 367.06h2.208v3.5h-2.208zM509.25 367.06h2.208v3.5h-2.208zM511.52 367.06h2.21v3.5h-2.21zM515.938 367.06h2.208v3.5h-2.208zM520 367.06h2.208v3.5H520zM522.208 367.06h2.208v3.5h-2.208zM524.417 367.06h2.208v3.5h-2.208zM526.688 367.06h2.208v3.5h-2.208zM531.104 367.06h2.208v3.5h-2.208zM536.27 367.06h2.21v3.5h-2.21z" />
                        <path
                            d="M538.48 367.06h2.207v3.5h-2.208zM540.688 367.06h2.208v3.5h-2.208zM542.958 367.06h2.208v3.5h-2.208zM492.75 372.56h2.208v3.5h-2.208zM496.646 372.56h2.208v3.5h-2.208z" />
                        <path
                            d="M498.854 372.56h2.208v3.5h-2.208zM501.063 372.56h2.208v3.5h-2.207zM503.333 372.56h2.208v3.5h-2.207zM507.75 372.56h2.208v3.5h-2.208zM511.813 372.56h2.208v3.5h-2.207z" />
                        <path d="M514.02 372.56h2.21v3.5h-2.21z" />
                        <path
                            d="M516.23 372.56h2.207v3.5h-2.208zM518.5 372.56h2.208v3.5H518.5zM522.917 372.56h2.208v3.5h-2.208zM528.083 372.56h2.208v3.5h-2.207zM530.292 372.56h2.208v3.5h-2.208zM532.5 372.56h2.208v3.5H532.5zM536.27 372.56h2.21v3.5h-2.21zM542.958 372.56h2.208v3.5h-2.208zM540.688 372.56h2.208v3.5h-2.208zM489.833 372.56h2.208v3.5h-2.207zM489.833 378.31h2.208v3.5h-2.207zM492.042 378.31h2.208v3.5h-2.208zM494.25 378.31h2.208v3.5h-2.208zM496.52 378.31h2.21v3.5h-2.21zM500.938 378.31h2.208v3.5h-2.208zM504.833 378.31h2.208v3.5h-2.207zM507.042 378.31h2.208v3.5h-2.208zM509.25 378.31h2.208v3.5h-2.208zM511.52 378.31h2.21v3.5h-2.21zM515.938 378.31h2.208v3.5h-2.208zM520 378.31h2.208v3.5H520zM522.208 378.31h2.208v3.5h-2.208zM524.417 378.31h2.208v3.5h-2.208zM526.688 378.31h2.208v3.5h-2.208zM531.104 378.31h2.208v3.5h-2.208zM536.27 378.31h2.21v3.5h-2.21z" />
                        <path
                            d="M538.48 378.31h2.207v3.5h-2.208zM540.688 378.31h2.208v3.5h-2.208zM542.958 378.31h2.208v3.5h-2.208zM492.75 383.81h2.208v3.5h-2.208zM496.646 383.81h2.208v3.5h-2.208z" />
                        <path
                            d="M498.854 383.81h2.208v3.5h-2.208zM501.063 383.81h2.208v3.5h-2.207zM503.333 383.81h2.208v3.5h-2.207zM507.75 383.81h2.208v3.5h-2.208zM511.813 383.81h2.208v3.5h-2.207z" />
                        <path d="M514.02 383.81h2.21v3.5h-2.21z" />
                        <path
                            d="M516.23 383.81h2.207v3.5h-2.208zM518.5 383.81h2.208v3.5H518.5zM522.917 383.81h2.208v3.5h-2.208zM528.083 383.81h2.208v3.5h-2.207zM530.292 383.81h2.208v3.5h-2.208zM532.5 383.81h2.208v3.5H532.5zM536.27 383.81h2.21v3.5h-2.21zM542.958 383.81h2.208v3.5h-2.208zM540.688 383.81h2.208v3.5h-2.208zM489.833 383.81h2.208v3.5h-2.207zM489.833 389.065h2.208v3.5h-2.207zM492.042 389.065h2.208v3.5h-2.208zM494.25 389.065h2.208v3.5h-2.208zM496.52 389.065h2.21v3.5h-2.21zM500.938 389.065h2.208v3.5h-2.208zM504.833 389.065h2.208v3.5h-2.207zM507.042 389.065h2.208v3.5h-2.208zM509.25 389.065h2.208v3.5h-2.208zM511.52 389.065h2.21v3.5h-2.21zM515.938 389.065h2.208v3.5h-2.208zM520 389.065h2.208v3.5H520zM522.208 389.065h2.208v3.5h-2.208zM524.417 389.065h2.208v3.5h-2.208zM526.688 389.065h2.208v3.5h-2.208zM531.104 389.065h2.208v3.5h-2.208zM536.27 389.065h2.21v3.5h-2.21z" />
                        <path
                            d="M538.48 389.065h2.207v3.5h-2.208zM540.688 389.065h2.208v3.5h-2.208zM542.958 389.065h2.208v3.5h-2.208zM492.75 394.565h2.208v3.5h-2.208zM496.646 394.565h2.208v3.5h-2.208z" />
                        <path
                            d="M498.854 394.565h2.208v3.5h-2.208zM501.063 394.565h2.208v3.5h-2.207zM503.333 394.565h2.208v3.5h-2.207zM507.75 394.565h2.208v3.5h-2.208zM511.813 394.565h2.208v3.5h-2.207z" />
                        <path d="M514.02 394.565h2.21v3.5h-2.21z" />
                        <path
                            d="M516.23 394.565h2.207v3.5h-2.208zM518.5 394.565h2.208v3.5H518.5zM522.917 394.565h2.208v3.5h-2.208zM528.083 394.565h2.208v3.5h-2.207zM530.292 394.565h2.208v3.5h-2.208zM532.5 394.565h2.208v3.5H532.5zM536.27 394.565h2.21v3.5h-2.21zM542.958 394.565h2.208v3.5h-2.208zM540.688 394.565h2.208v3.5h-2.208zM489.833 394.565h2.208v3.5h-2.207zM490 400.583h2.208v3.5H490zM492.208 400.583h2.208v3.5h-2.208zM494.417 400.583h2.208v3.5h-2.208zM496.687 400.583h2.208v3.5h-2.208zM501.104 400.583h2.208v3.5h-2.208zM505 400.583h2.208v3.5H505zM507.208 400.583h2.208v3.5h-2.208zM509.417 400.583h2.208v3.5h-2.208zM511.688 400.583h2.208v3.5h-2.208zM516.104 400.583h2.208v3.5h-2.208zM520.167 400.583h2.208v3.5h-2.208zM522.375 400.583h2.208v3.5h-2.208zM524.583 400.583h2.208v3.5h-2.207zM526.854 400.583h2.208v3.5h-2.208zM531.27 400.583h2.21v3.5h-2.21zM536.438 400.583h2.208v3.5h-2.208zM538.646 400.583h2.208v3.5h-2.208zM540.854 400.583h2.208v3.5h-2.208zM543.125 400.583h2.208v3.5h-2.208zM492.917 406.083h2.208v3.5h-2.208zM496.812 406.083h2.208v3.5h-2.208z" />
                        <path d="M499.02 406.083h2.21v3.5h-2.21z" />
                        <path
                            d="M501.23 406.083h2.207v3.5h-2.208zM503.5 406.083h2.208v3.5H503.5zM507.917 406.083h2.208v3.5h-2.208zM511.98 406.083h2.207v3.5h-2.208zM514.188 406.083h2.208v3.5h-2.208zM516.396 406.083h2.208v3.5h-2.208zM518.667 406.083h2.208v3.5h-2.208zM523.083 406.083h2.208v3.5h-2.207zM528.25 406.083h2.208v3.5h-2.208zM530.458 406.083h2.208v3.5h-2.208zM532.667 406.083h2.208v3.5h-2.208zM536.438 406.083h2.208v3.5h-2.208zM543.125 406.083h2.208v3.5h-2.208zM540.854 406.083h2.208v3.5h-2.208zM490 406.083h2.208v3.5H490zM490 411.333h2.208v3.5H490zM492.208 411.333h2.208v3.5h-2.208zM494.417 411.333h2.208v3.5h-2.208zM496.687 411.333h2.208v3.5h-2.208zM501.104 411.333h2.208v3.5h-2.208zM505 411.333h2.208v3.5H505zM507.208 411.333h2.208v3.5h-2.208zM509.417 411.333h2.208v3.5h-2.208zM511.688 411.333h2.208v3.5h-2.208zM516.104 411.333h2.208v3.5h-2.208zM520.167 411.333h2.208v3.5h-2.208zM522.375 411.333h2.208v3.5h-2.208zM524.583 411.333h2.208v3.5h-2.207zM526.854 411.333h2.208v3.5h-2.208zM531.27 411.333h2.21v3.5h-2.21zM536.438 411.333h2.208v3.5h-2.208zM538.646 411.333h2.208v3.5h-2.208zM540.854 411.333h2.208v3.5h-2.208zM543.125 411.333h2.208v3.5h-2.208zM492.917 416.833h2.208v3.5h-2.208zM496.812 416.833h2.208v3.5h-2.208z" />
                        <path d="M499.02 416.833h2.21v3.5h-2.21z" />
                        <path
                            d="M501.23 416.833h2.207v3.5h-2.208zM503.5 416.833h2.208v3.5H503.5zM507.917 416.833h2.208v3.5h-2.208zM511.98 416.833h2.207v3.5h-2.208zM514.188 416.833h2.208v3.5h-2.208zM516.396 416.833h2.208v3.5h-2.208zM518.667 416.833h2.208v3.5h-2.208zM523.083 416.833h2.208v3.5h-2.207zM528.25 416.833h2.208v3.5h-2.208zM530.458 416.833h2.208v3.5h-2.208zM532.667 416.833h2.208v3.5h-2.208zM536.438 416.833h2.208v3.5h-2.208zM543.125 416.833h2.208v3.5h-2.208zM540.854 416.833h2.208v3.5h-2.208zM490 416.833h2.208v3.5H490zM490 422.583h2.208v3.5H490zM492.208 422.583h2.208v3.5h-2.208zM494.417 422.583h2.208v3.5h-2.208zM496.687 422.583h2.208v3.5h-2.208zM501.104 422.583h2.208v3.5h-2.208zM505 422.583h2.208v3.5H505zM507.208 422.583h2.208v3.5h-2.208zM509.417 422.583h2.208v3.5h-2.208zM511.688 422.583h2.208v3.5h-2.208zM516.104 422.583h2.208v3.5h-2.208zM520.167 422.583h2.208v3.5h-2.208zM522.375 422.583h2.208v3.5h-2.208zM524.583 422.583h2.208v3.5h-2.207zM526.854 422.583h2.208v3.5h-2.208zM531.27 422.583h2.21v3.5h-2.21zM536.438 422.583h2.208v3.5h-2.208zM538.646 422.583h2.208v3.5h-2.208zM540.854 422.583h2.208v3.5h-2.208zM543.125 422.583h2.208v3.5h-2.208zM492.917 428.083h2.208v3.5h-2.208zM496.812 428.083h2.208v3.5h-2.208z" />
                        <path d="M499.02 428.083h2.21v3.5h-2.21z" />
                        <path
                            d="M501.23 428.083h2.207v3.5h-2.208zM503.5 428.083h2.208v3.5H503.5zM507.917 428.083h2.208v3.5h-2.208zM511.98 428.083h2.207v3.5h-2.208zM514.188 428.083h2.208v3.5h-2.208zM516.396 428.083h2.208v3.5h-2.208zM518.667 428.083h2.208v3.5h-2.208zM523.083 428.083h2.208v3.5h-2.207zM528.25 428.083h2.208v3.5h-2.208zM530.458 428.083h2.208v3.5h-2.208zM532.667 428.083h2.208v3.5h-2.208zM536.438 428.083h2.208v3.5h-2.208zM543.125 428.083h2.208v3.5h-2.208zM540.854 428.083h2.208v3.5h-2.208zM490 428.083h2.208v3.5H490zM490 433.337h2.208v3.5H490zM492.208 433.337h2.208v3.5h-2.208zM494.417 433.337h2.208v3.5h-2.208zM496.687 433.337h2.208v3.5h-2.208zM501.104 433.337h2.208v3.5h-2.208zM505 433.337h2.208v3.5H505zM507.208 433.337h2.208v3.5h-2.208zM509.417 433.337h2.208v3.5h-2.208zM511.688 433.337h2.208v3.5h-2.208zM516.104 433.337h2.208v3.5h-2.208zM520.167 433.337h2.208v3.5h-2.208zM522.375 433.337h2.208v3.5h-2.208zM524.583 433.337h2.208v3.5h-2.207zM526.854 433.337h2.208v3.5h-2.208zM531.27 433.337h2.21v3.5h-2.21zM536.438 433.337h2.208v3.5h-2.208zM538.646 433.337h2.208v3.5h-2.208zM540.854 433.337h2.208v3.5h-2.208zM543.125 433.337h2.208v3.5h-2.208z" />
                    </g>
                    <g id="Fan1">
                        <circle stroke="#000" stroke-miterlimit="10" cx="500" cy="296.875" r="1.5" />
                        <g>
                            <path
                                d="M500.09 298.375s.452 1.28.7 2.563c.058.32.228.64.242.94 0 .3-.104.582-.242.822-.25.48-.7.8-.7.8h-.2s-.45-.32-.7-.8c-.138-.24-.24-.52-.242-.82.013-.3.183-.622.242-.942.248-1.28.7-2.563.7-2.563h.2z" />
                        </g>
                        <g>
                            <path
                                d="M501.454 297.253s1.358-.034 2.653.126c.323.043.68-.02.97.06.285.094.52.278.706.484.38.387.545.913.545.913l-.062.19s-.443.328-.978.418c-.27.057-.57.068-.855-.024-.28-.105-.534-.365-.82-.52-1.142-.632-2.22-1.458-2.22-1.458l.06-.19z" />
                        </g>
                        <g>
                            <path
                                d="M500.81 295.61s.387-1.303.94-2.486c.14-.293.19-.652.356-.903.178-.24.425-.408.678-.52.485-.242 1.037-.237 1.037-.237l.163.118s.175.524.096 1.06c-.03.275-.113.562-.288.806-.187.235-.513.394-.75.62-.953.89-2.072 1.66-2.072 1.66l-.16-.117z" />
                        </g>
                        <g>
                            <path
                                d="M499.046 295.714s-1.12-.77-2.073-1.662c-.235-.225-.56-.384-.75-.62-.174-.243-.256-.53-.286-.805-.08-.536.096-1.06.096-1.06l.162-.117s.552-.005 1.037.236c.253.113.5.28.678.522.166.25.216.61.357.903.552 1.183.94 2.486.94 2.486l-.16.118z" />
                        </g>
                        <g>
                            <path
                                d="M498.6 297.424s-1.078.826-2.22 1.458c-.287.154-.54.415-.82.52-.286.092-.584.08-.855.025-.534-.09-.978-.418-.978-.418l-.062-.19s.166-.527.545-.914c.186-.205.42-.39.706-.484.29-.08.647-.017.97-.06 1.295-.16 2.653-.127 2.653-.127l.06.19z" />
                        </g>
                    </g>
                    <g id="Fan2">
                        <circle stroke="#000" stroke-miterlimit="10" cx="517.667" cy="300.25" r="1.5" />
                        <g>
                            <path
                                d="M517.756 301.75s.452 1.28.7 2.563c.058.32.228.64.242.94 0 .3-.104.582-.242.822-.25.48-.7.8-.7.8h-.2s-.45-.32-.7-.8c-.138-.24-.24-.52-.242-.82.013-.3.183-.622.242-.942.248-1.28.7-2.563.7-2.563h.2z" />
                        </g>
                        <g>
                            <path
                                d="M519.12 300.628s1.36-.034 2.654.126c.323.044.68-.02.97.06.285.095.52.28.706.485.38.386.545.912.545.912l-.062.19s-.443.328-.978.418c-.27.057-.57.068-.855-.024-.28-.106-.534-.366-.82-.52-1.142-.633-2.22-1.46-2.22-1.46l.06-.188z" />
                        </g>
                        <g>
                            <path
                                d="M518.476 298.984s.388-1.302.94-2.485c.14-.294.192-.653.357-.904.178-.242.425-.41.678-.522.486-.24 1.038-.236 1.038-.236l.162.118s.175.523.096 1.06c-.03.274-.112.56-.287.805-.188.236-.514.395-.75.62-.954.89-2.073 1.662-2.073 1.662l-.16-.118z" />
                        </g>
                        <g>
                            <path
                                d="M516.713 299.09s-1.12-.772-2.073-1.663c-.235-.225-.56-.384-.75-.62-.174-.243-.256-.53-.286-.805-.08-.536.096-1.06.096-1.06l.162-.117s.552-.005 1.037.236c.252.114.5.28.677.523.166.25.216.61.357.903.552 1.182.94 2.485.94 2.485l-.16.12z" />
                        </g>
                        <g>
                            <path
                                d="M516.268 300.8s-1.08.825-2.22 1.457c-.288.154-.54.415-.82.52-.287.092-.585.08-.856.025-.535-.09-.978-.418-.978-.418l-.062-.19s.166-.526.545-.913c.186-.204.42-.388.706-.483.29-.08.647-.017.97-.06 1.295-.16 2.653-.127 2.653-.127l.062.19z" />
                        </g>
                    </g>
                    <g id="Fan3">
                        <circle stroke="#000" stroke-miterlimit="10" cx="535.253" cy="296.719" r="1.5" />
                        <g>
                            <path
                                d="M535.343 298.22s.452 1.28.7 2.562c.058.32.228.64.242.94 0 .3-.104.582-.242.822-.25.48-.7.8-.7.8h-.2s-.45-.32-.7-.8c-.138-.24-.24-.52-.242-.82.014-.3.184-.622.243-.942.248-1.28.7-2.563.7-2.563h.2z" />
                        </g>
                        <g>
                            <path
                                d="M536.708 297.097s1.358-.034 2.653.126c.324.044.68-.02.97.06.286.095.52.28.707.485.38.387.545.913.545.913l-.062.19s-.443.33-.978.42c-.27.056-.57.067-.855-.025-.28-.106-.534-.366-.82-.52-1.142-.633-2.22-1.46-2.22-1.46l.06-.188z" />
                        </g>
                        <g>
                            <path
                                d="M536.062 295.453s.388-1.302.94-2.485c.14-.293.192-.652.357-.903.177-.242.424-.41.677-.522.485-.24 1.037-.236 1.037-.236l.162.118s.175.523.096 1.06c-.03.274-.112.56-.287.805-.187.235-.513.394-.75.62-.953.89-2.072 1.66-2.072 1.66l-.16-.117z" />
                        </g>
                        <g>
                            <path
                                d="M534.3 295.558s-1.12-.77-2.074-1.662c-.235-.225-.56-.384-.75-.62-.174-.243-.256-.53-.286-.805-.08-.535.096-1.058.096-1.058l.162-.118s.552-.005 1.037.236c.253.113.5.28.678.522.166.25.216.61.357.903.552 1.182.94 2.485.94 2.485l-.16.118z" />
                        </g>
                        <g>
                            <path
                                d="M533.854 297.268s-1.08.826-2.22 1.458c-.288.154-.54.415-.82.52-.287.092-.585.08-.856.025-.534-.09-.978-.417-.978-.417l-.062-.19s.166-.526.545-.913c.186-.205.42-.39.706-.484.29-.08.646-.017.97-.06 1.294-.16 2.652-.127 2.652-.127l.062.188z" />
                        </g>
                    </g>
                </g>
            </g>
            <g id="Barriers">
                <g id="Barrier_Right">
                    <path fill="#EDEDED" stroke="#000" stroke-miterlimit="10"
                        d="M336.25 431.5l40.375 12.167H558v-6.996H376.625l-40.375-11.537z" />
                </g>
                <g id="Barrier_Left">
                    <path fill="#EDEDED" stroke="#000" stroke-miterlimit="10"
                        d="M267.79 431.5l-41.294 12.167H41v-6.996h185.496l41.293-11.537z" />
                </g>
            </g>
            <g id="Boat">
                <g id="Windows_1_" fill="none" stroke="#000" stroke-miterlimit="10">
                    <path
                        d="M159.796 492.098c0 1.657-1.343 3-3 3h-3c-1.657 0-3-1.343-3-3s1.343-3 3-3h3c1.657 0 3 1.343 3 3zM147.944 492.098c0 1.657-1.343 3-3 3h-3c-1.657 0-3-1.343-3-3s1.343-3 3-3h3c1.657 0 3 1.343 3 3zM136.826 492.165c0 1.657-1.343 3-3 3h-3c-1.657 0-3-1.343-3-3s1.343-3 3-3h3c1.657 0 3 1.343 3 3zM124.974 492.165c0 1.657-1.343 3-3 3h-3c-1.657 0-3-1.343-3-3s1.343-3 3-3h3c1.657 0 3 1.343 3 3z" />
                    <circle cx="80.796" cy="491.964" r="2.866" />
                    <circle cx="168.989" cy="490.919" r="1.7" />
                    <path
                        d="M112.648 492.165c0 1.657-1.343 3-3 3h-3c-1.657 0-3-1.343-3-3s1.343-3 3-3h3c1.657 0 3 1.343 3 3zM100.796 492.165c0 1.657-1.343 3-3 3h-3c-1.657 0-3-1.343-3-3s1.343-3 3-3h3c1.657 0 3 1.343 3 3zM162.193 479.575c0 .297-.34.538-.762.538h-9.253c-.42 0-.762-.24-.762-.538v-6.534c0-.296.34-.537.762-.537h9.254c.422 0 .763.24.763.538v6.535zM148.833 479.575c0 .297-.34.538-.762.538h-9.253c-.42 0-.762-.24-.762-.538v-6.534c0-.296.34-.537.762-.537h9.254c.422 0 .763.24.763.538v6.535zM135.222 479.575c0 .297-.34.538-.762.538h-9.254c-.42 0-.762-.24-.762-.538v-6.534c0-.296.34-.537.762-.537h9.254c.42 0 .762.24.762.538v6.535zM121.862 479.575c0 .297-.34.538-.762.538h-9.254c-.42 0-.762-.24-.762-.538v-6.534c0-.296.34-.537.762-.537h9.254c.42 0 .762.24.762.538v6.535zM109.037 479.575c0 .297-.34.538-.762.538H99.02c-.42 0-.76-.24-.76-.538v-6.534c0-.296.34-.537.76-.537h9.255c.42 0 .762.24.762.538v6.535zM171.708 472.503h-4.828M166.88 472.503v7.61M166.88 480.112h4.45M171.33 480.112l.378-7.61" />
                </g>
                <g id="Main_x5F_Boat" fill="none" stroke="#000" stroke-miterlimit="10">
                    <path
                        d="M73.335 504.82l-2.25-7.667s109.29-1.667 109.75-4.667-4.81 12.333-4.81 12.333M173.817 493.77l-2.627-11.642M171.774 487.237h-95.94M75.835 487.237l-1.033 9.856M172.004 470.487H94.046M94.046 470.487l-2.25 16.75M171.19 482.128l.814-11.64M103.648 470.487l-1.602-5.25M102.046 465.237h10.602M112.648 465.237l1.648 5.25M92.753 480.112H76.88M76.88 480.112v7.125M76.88 483.675h15.873M79.647 480.112v7.125M83.662 480.112v7.125M88.546 480.112v7.125M176.04 504.786l-4.047 9.416-.008.018M73.218 504.82l2.192 8.058" />
                </g>
                <g id="Text_x5F_Front">
                    <g>
                        <g>
                            <path
                                d="M165.344 496.383c.207 0 .37.078.48.17l-.193.168c-.08-.07-.176-.104-.286-.104-.112 0-.21.033-.29.102-.08.068-.122.15-.124.246 0 .096.037.18.117.25.08.07.175.105.29.107.175.004.31-.088.37-.197-.153 0-.23-.002-.384-.004 0-.09 0-.134.002-.222.277.003.415.003.692.004.02.218-.064.377-.198.49-.137.113-.3.168-.49.164-.19-.004-.35-.065-.482-.18-.133-.117-.197-.254-.194-.415.003-.158.072-.293.207-.407.135-.113.295-.17.483-.17zM167.248 496.537c.136.117.205.26.208.427.003.168-.062.313-.195.432-.132.12-.294.177-.483.176-.19 0-.354-.06-.487-.177-.135-.118-.202-.258-.202-.422s.067-.304.2-.422c.134-.118.292-.18.48-.182s.344.052.48.17zm-.77.18c-.08.072-.12.156-.118.254 0 .1.04.184.122.255.08.07.178.105.292.105.113 0 .21-.036.29-.106.08-.07.12-.157.117-.258 0-.1-.042-.185-.123-.255-.08-.07-.177-.103-.29-.1-.114 0-.21.036-.288.107zM167.828 496.352c.01.387.013.58.02.967l.545-.01.007.244c-.327.005-.49.007-.82.01l-.02-1.204.268-.008zM168.837 496.316c.21-.01.378.06.496.16.124.105.19.25.198.432.01.18-.045.33-.162.444-.13.125-.292.19-.49.193l-.36.007-.037-1.222.357-.014zm.008.245l-.087.004.024.738c.036 0 .054 0 .09-.002.245-.006.398-.16.39-.383-.01-.222-.176-.366-.417-.356zM170.425 496.23l.014.253-.54.03.013.25c.162-.007.243-.01.405-.02l.013.254-.405.018.012.252.544-.022c.006.1.01.15.015.252-.327.013-.49.02-.818.03l-.055-1.252c.32-.016.482-.025.803-.045zM171.39 496.88c-.017-.285-.027-.427-.045-.712l.27-.02.09 1.318-.862-.69.04.706-.272.012-.07-1.294c.338.27.508.405.85.68zM173.078 496.023l.023.264c-.214.02-.32.03-.536.046.008.105.013.158.02.264l.405-.033.02.264c-.16.013-.242.02-.405.03l.042.526-.272.018-.1-1.306c.322-.028.482-.043.803-.073zM173.462 495.99l.096 1.06.542-.046.026.267c-.326.028-.49.04-.816.065l-.115-1.32.267-.026zM174.666 495.834l.76 1.32c-.117.01-.176.016-.293.028l-.114-.197-.463.044-.07.212-.295.025c.194-.568.29-.855.474-1.433zm.22.92c-.06-.11-.092-.163-.152-.272l-.095.298.246-.025zM176.148 496.587c.218-.4.326-.603.537-1.013l.182 1.423c-.11.013-.163.02-.27.03l-.073-.573c-.127.24-.19.358-.32.595l-.454-.505.066.568c-.11.01-.163.017-.272.028l-.158-1.395.762.842zM177.652 495.465l.04.282-.535.076.038.282.402-.055c.016.113.023.17.04.282l-.405.054.038.282c.216-.027.324-.04.54-.07l.04.28c-.326.043-.49.063-.814.1l-.182-1.397c.32-.044.478-.067.798-.115z" />
                        </g>
                    </g>
                </g>
                <g id="Text_x5F_Stern">
                    <text transform="translate(73.335 500.82)" font-family="'LemonMilk'" font-size="2">
                        London
                    </text>
                </g>
                <g id="Fixed_Sea_Layer">
                    <linearGradient id="SVGID_1_" gradientUnits="userSpaceOnUse" x1="124.445" y1="502.819" x2="124.445"
                        y2="515.5">
                        <stop offset="0" stop-color="#FFF" stop-opacity="0" />
                        <stop offset=".156" stop-color="#FFF" />
                    </linearGradient>
                    <path fill="url(#SVGID_1_)" d="M62.383 502.82h124.123v12.68H62.383z" />
                </g>
                <g id="Dynamic_wave1" fill="none" stroke="#000" stroke-miterlimit="10">
                    <path class="waveOne_fillLine"
                        d="M169.105 505.75s10.69-3.875 14.19 0M169.105 506.543c7.816.32 10.69-3.875 14.19 0" />
                    <path class="waveOne_fillLine"
                        d="M169.105 505.75s10.69-3.875 14.19 0M169.105 506.543c7.816.32 10.69-3.875 14.19 0" />
                </g>
                <g id="Dynamic_Wave2" fill="none" stroke="#000" stroke-miterlimit="10">
                    <path class="waveTwo_fillLine"
                        d="M172.207 504.89s-6.717 2.374-12.978 0c-6.262-2.376-17.75 0-17.75 0s-17.126 2.533-21.25 0c-4.126-2.535-19.75 0-19.75 0s-12.126 3.783-17 0c-4.876-3.785-11.962 0-11.962 0" />
                    <path class="waveTwo_fillLine"
                        d="M172.207 505.75s-5.986 2.52-12.978 0c-6.993-2.52-17.75 0-17.75 0s-11.25 4.25-21.25 0-19.75 0-19.75 0-14 5.5-17 0-11.962 0-11.962 0" />
                </g>
                <g id="Dynamic_Wave3" fill="none" stroke="#000" stroke-miterlimit="10">
                    <path class="waveThree_fillLine"
                        d="M75.835 504.996s-11.62-1.463-20.265 5.277M73.335 505.056s-11.875-1.906-20.265 3.367" />
                    <path class="waveThree_fillLine"
                        d="M75.835 504.996s-11.62-1.463-20.265 5.277M73.335 505.056s-11.875-1.906-20.265 3.367" />
                </g>
            </g>
            <g id="Buttons">
                <g id="AboutMe" class="aboutMe">
                    <g id="button_shadow_AboutMe">
                        <path fill="#e5c672"
                            d="M545 477c0 1.105-.895 2-2 2h-87.333c-1.105 0-2-.895-2-2v-20c0-1.105.895-2 2-2H543c1.105 0 2 .895 2 2v20z" />
                    </g>
                    <g id="button_AboutMe">
                        <path class="btnAboutMe" fill="#ffdc7f"
                            d="M545 474c0 1.105-.895 2-2 2h-87.333c-1.105 0-2-.895-2-2v-20c0-1.105.895-2 2-2H543c1.105 0 2 .895 2 2v20z" />
                    </g>
                    <g id="txt_AboutMe">
                        <text transform="translate(485 468)" font-family="'Poppins'" font-size="11.339" fill='grey'>
                            About
                        </text>
                    </g>
                </g>
                <g id="Awards" class="awards">
                    <g id="button_shadow">
                        <path fill="#65ccb0"
                            d="M545 509c0 1.105-.895 2-2 2h-87.333c-1.105 0-2-.895-2-2v-20c0-1.105.895-2 2-2H543c1.105 0 2 .895 2 2v20z" />
                    </g>
                    <g id="button_Awards">
                        <path class="btnAwards" fill="#7fffdc"
                            d="M545 506c0 1.105-.895 2-2 2h-87.333c-1.105 0-2-.895-2-2v-20c0-1.105.895-2 2-2H543c1.105 0 2 .895 2 2v20z" />
                    </g>
                    <g id="txt_Awards">
                        <text transform="translate(462.5 500)" font-family="'Poppins'" font-size="11.339" fill='grey'>
                            Toggle labels
                        </text>
                    </g>
                </g>
            </g>
            <g id="Text_For_Links" class="Text_For_Labels">
                <g id="txtLinkedIn">
                    <text transform="rotate(-75 276.9 -10.796)" font-family="'Poppins'" font-size="11.339"
                        fill='#ff7fa2'>
                        Linked in
                    </text>
                </g>
                <g id="txtTwitter">
                    <text transform="rotate(-75 367.73 -3.012)" font-family="'Poppins'" font-size="11.339" fill='grey'>
                        twitter
                    </text>
                </g>
                <g id="txtGithub">
                    <text transform="rotate(15 -491.723 1563.58)" font-family="'Poppins'" font-size="11.339"
                        fill='#567a48'>
                        codepen
                    </text>
                </g>
                <g id="txtInstagram">
                    <text transform="translate(294.334 253)" font-family="'Poppins'" font-size="11.339" fill='#b28b23'>
                        instagram
                    </text>
                </g>
                <g id="txtWordpress">
                    <text transform="translate(413 454.334)" font-family="'Poppins'" font-size="11.339" fill='#60a390'>
                        blog
                    </text>
                </g>
                <g id="txtPlotly">
                    <text transform="matrix(1 .0073 -.0073 1 492.572 186.715)">
                        <tspan x="0" y="13.606" font-family="'Poppins'" font-size="11.339" fill='#a26cb7'>github
                        </tspan>
                    </text>
                </g>
            </g>
        </g>
        <g id="Title_Area">
            <g id="Name_Text">
                <text transform="translate(116 122)" font-family="'Poppins'" font-size="36.85" font-weight="bold"
                    fill="grey">
                    BEN MONEY-COOMES
                </text>
            </g>
            <g id="Description_Text">
                <text transform="matrix(1.0522 0 0 1 62 143)" font-family="'Poppins'" font-size="11.339"
                    font-weight="bold" fill="grey">
                    here&apos;s most of my online presence condensed into one convenient page
                </text>
            </g>
            <g id="Skyline_Text" class="skylineText">
                <text transform="matrix(1.0522 0 0 1 510 143)" font-family="'Poppins'" font-size="11.339"
                    font-weight="bold" fill="#606060">
                    skyline
                </text>
            </g>
            <g id="Scribble">
                <path class="scribble" fill="none" stroke="#ffdc7f" stroke-width="1.417" stroke-miterlimit="10"
                    d="M470 140c3.746 1.63 12.716-4.01 15.96-5.426-3.996.017-9.725 4.6-13.044 6.936 3.877 1.463 14.732-2.095 17.91-5.055-2.507.838-5.036 2.43-6.788 4.444 1.566-.087 3.306.25 4.886.164.238 4.675-3.923 8.056-7.384 9.85 4.193-.306 9.517-2.112 13.295-4.44-4.055.097-10.32 2.348-13.77 1.342.752-2.75 3.336-5.646 4.38-8.228-5.387-.316-11.542-.11-16.415.802 7.05.52 13.822-1.106 20.83-.4-3.045.267-5.89 1.487-8.683 2.037 7.03.554 14.142-4.565 20.172-7.09-3.374 2.235-7.524 3.828-11.35 4.564" />
            </g>
            <g id="Line_For_Hiding_Text">
                <path class="lineHidingText" fill="none" stroke="#7fffdc" stroke-width="2.835" stroke-miterlimit="10"
                    d="M113 128h402" />
            </g>
            <g id="Box_For_Hiding">
                <path fill="none" d="M113 90h401v38H113z" />
            </g>
        </g>
    </g>
</svg>