<?xml version="1.0" encoding="utf-8"?>
<!-- Generator: Adobe Illustrator 17.0.0, SVG Export Plug-In . SVG Version: 6.00 Build 0)  -->
<!DOCTYPE svg PUBLIC "-//W3C//DTD SVG 1.1//EN" "http://www.w3.org/Graphics/SVG/1.1/DTD/svg11.dtd">
<svg version="1.1" xmlns="http://www.w3.org/2000/svg" xmlns:xlink="http://www.w3.org/1999/xlink" x="0px" y="0px" width="600px"
	 height="600px" viewBox="0 0 600 600" enable-background="new 0 0 600 600" xml:space="preserve">
<g id="Layer_1">
	<g id="Border">
		<path fill="none" d="M46.04,169.53h504.794v367.623H46.04V169.53z"/>
	</g>
	<g id="Skyline_for_Svg">
		<g id="Diagram_Area">
			<g id="Skyline_x5F_Logos">
				<g id="Plotly_Cone">
					<g>
						<g id="XMLID_4_">
							<g>
								<path fill="#FFFFFF" d="M542.92,228.36c0,2.19-0.29,4.31-0.82,6.33l-24.89,91.81l-22.4-89.81v-0.01
									c-0.93-2.61-1.43-5.4-1.43-8.32c0-13.68,11.09-24.77,24.77-24.77S542.92,214.68,542.92,228.36L542.92,228.36z"/>
							</g>
							<g>
								<path fill="none" stroke="#000000" stroke-miterlimit="10" d="M494.81,236.68c-0.93-2.61-1.43-5.4-1.43-8.32
									c0-13.68,11.09-24.77,24.77-24.77c13.68,0,24.77,11.09,24.77,24.77c0,2.19-0.29,4.31-0.82,6.33 M494.81,236.68v0.01
									l22.4,89.81 M517.21,326.5l24.89-91.81"/>
							</g>
						</g>
					</g>
				</g>
				<g id="Twitter_Cone">
					<g>
						<g id="XMLID_3_">
							<g>
								<path fill="#FFFFFF" d="M276.56,299.32c0,2.18-0.29,4.3-0.82,6.32v0.01l-24.89,91.8l-22.4-89.81
									c-0.93-2.6-1.43-5.4-1.43-8.32c0-13.68,11.09-24.77,24.77-24.77C265.47,274.55,276.56,285.64,276.56,299.32z"/>
							</g>
							<g>
								<path fill="none" stroke="#000000" stroke-miterlimit="10" d="M228.45,307.64c-0.93-2.6-1.43-5.4-1.43-8.32
									c0-13.68,11.09-24.77,24.77-24.77c13.68,0,24.77,11.09,24.77,24.77c0,2.18-0.29,4.3-0.82,6.32 M228.45,307.64l22.4,89.81
									 M250.85,397.45l24.89-91.8v-0.01"/>
							</g>
						</g>
					</g>
				</g>
				<g id="Wordpress_Cone">
					<g>
						<g id="XMLID_2_">
							<g>
								<path fill="#FFFFFF" d="M417.09,477.83c0.93,2.6,1.43,5.4,1.43,8.32c0,13.68-11.09,24.77-24.76,24.77
									c-13.68,0-24.77-11.09-24.77-24.77c0-2.19,0.28-4.31,0.81-6.33l24.89-91.81L417.09,477.83L417.09,477.83z"/>
							</g>
							<g>
								<path fill="none" stroke="#000000" stroke-miterlimit="10" d="M417.09,477.83c0.93,2.6,1.43,5.4,1.43,8.32
									c0,13.68-11.09,24.77-24.76,24.77c-13.68,0-24.77-11.09-24.77-24.77c0-2.19,0.28-4.31,0.81-6.33 M417.09,477.83l-22.4-89.82
									 M394.69,388.01l-24.89,91.81"/>
							</g>
						</g>
					</g>
				</g>
				<g id="LinkedIn_Cone">
					<g id="XMLID_1_">
						<g>
							<path fill="#FFFFFF" d="M216.86,209.53l-24.88,91.8l-22.4-89.81L216.86,209.53z"/>
							<path fill="#FFFFFF" d="M217.68,203.2c0,2.18-0.28,4.31-0.81,6.33h-0.01l-47.28,1.99c-0.93-2.6-1.44-5.4-1.44-8.32
								c0-13.68,11.09-24.77,24.77-24.77S217.68,189.52,217.68,203.2L217.68,203.2z"/>
						</g>
						<g>
							<path fill="none" stroke="#000000" stroke-miterlimit="10" d="M169.58,211.52c-0.93-2.6-1.44-5.4-1.44-8.32
								c0-13.68,11.09-24.77,24.77-24.77s24.77,11.09,24.77,24.77c0,2.18-0.28,4.31-0.81,6.33 M169.58,211.52l22.4,89.81
								 M191.98,301.33l24.88-91.8"/>
						</g>
					</g>
				</g>
				<g id="Instagram_Cone">
					<g>
						<g id="XMLID_6_">
							<g>
								<path fill="#FFFFFF" d="M408.77,250.9c0,2.18-0.28,4.3-0.82,6.32l-24.88,91.81l-22.4-89.81c-0.93-2.6-1.44-5.4-1.44-8.32
									c0-13.68,11.09-24.77,24.77-24.77S408.77,237.22,408.77,250.9L408.77,250.9z"/>
							</g>
							<g>
								<path fill="none" stroke="#000000" stroke-miterlimit="10" d="M360.67,259.22c-0.93-2.6-1.44-5.4-1.44-8.32
									c0-13.68,11.09-24.77,24.77-24.77s24.77,11.09,24.77,24.77c0,2.18-0.28,4.3-0.82,6.32 M360.67,259.22l22.4,89.81
									 M383.07,349.03l24.88-91.81"/>
							</g>
						</g>
					</g>
				</g>
				<g id="Github_Cone">
					<g>
						<g id="XMLID_5_">
							<g>
								<path fill="#FFFFFF" d="M456.56,201.53l-89.81,22.4c-2.6,0.93-5.4,1.43-8.32,1.43c-13.68,0-24.77-11.09-24.77-24.77
									s11.09-24.77,24.77-24.77c2.18,0,4.29,0.29,6.32,0.82h0.01L456.56,201.53L456.56,201.53z"/>
							</g>
							<g>
								<path fill="none" stroke="#000000" stroke-miterlimit="10" d="M366.75,223.93c-2.6,0.93-5.4,1.43-8.32,1.43
									c-13.68,0-24.77-11.09-24.77-24.77s11.09-24.77,24.77-24.77c2.18,0,4.29,0.29,6.32,0.82 M366.75,223.93l89.81-22.4
									 M456.56,201.53l-91.8-24.89h-0.01"/>
							</g>
						</g>
					</g>
				</g>
				<g id="Twitter">
					<g>
						<path fill="#FFFFFF" stroke="#000000" stroke-miterlimit="10" d="M246.47,309.835c10.818,0,16.733-8.96,16.733-16.732
							c0-0.255-0.005-0.508-0.017-0.76c1.148-0.83,2.146-1.866,2.933-3.045c-1.055,0.468-2.19,0.784-3.378,0.926
							c1.214-0.728,2.146-1.88,2.586-3.253c-1.136,0.675-2.394,1.164-3.734,1.428c-1.073-1.143-2.6-1.858-4.292-1.858
							c-3.247,0-5.88,2.634-5.88,5.88c0,0.46,0.05,0.91,0.15,1.34c-4.886-0.245-9.22-2.585-12.12-6.143
							c-0.506,0.87-0.797,1.88-0.797,2.956c0,2.04,1.038,3.84,2.617,4.895c-0.965-0.03-1.87-0.295-2.663-0.735
							c-0.002,0.025-0.002,0.05-0.002,0.075c0,2.848,2.027,5.226,4.718,5.765c-0.494,0.135-1.014,0.207-1.55,0.207
							c-0.38,0-0.748-0.037-1.106-0.106c0.75,2.337,2.92,4.037,5.493,4.084c-2.013,1.578-4.548,2.517-7.304,2.517
							c-0.475,0-0.943-0.027-1.404-0.08c2.604,1.667,5.694,2.64,9.015,2.64"/>
					</g>
				</g>
				<g id="Instagram">
					<g>
						<g id="post-instagram_1_">
							<path fill="#FFFFFF" stroke="#000000" stroke-miterlimit="10" d="M394.097,238.412H372.79c-1.464,0-2.662,1.198-2.662,2.663
								v21.306c0,1.466,1.198,2.664,2.663,2.664h21.307c1.465,0,2.663-1.198,2.663-2.663v-21.305c0-1.464-1.2-2.663-2.663-2.663
								L394.097,238.412z M383.444,246.402c2.93,0,5.326,2.397,5.326,5.326s-2.397,5.326-5.326,5.326
								c-2.93,0-5.326-2.397-5.326-5.326S380.514,246.402,383.444,246.402z M373.457,262.382c-0.4,0-0.666-0.267-0.666-0.667v-11.32
								h2.797c-0.133,0.4-0.133,0.933-0.133,1.333c0,4.394,3.595,7.99,7.99,7.99c4.394,0,7.99-3.595,7.99-7.99
								c0-0.4,0-0.932-0.133-1.332h2.797v11.32c0,0.4-0.266,0.665-0.666,0.665H373.46L373.457,262.382z M394.097,244.404
								c0,0.4-0.266,0.666-0.666,0.666h-2.662c-0.4,0-0.666-0.266-0.666-0.666v-2.663c0-0.398,0.266-0.665,0.666-0.665h2.663
								c0.4,0,0.667,0.266,0.667,0.666v2.664L394.097,244.404z"/>
						</g>
					</g>
				</g>
				<g id="LinkedIn">
					<path fill="#FFFFFF" stroke="#000000" stroke-miterlimit="10" d="M205.168,188.236H180.66c-1.495,0-2.707,1.212-2.707,2.707
						v24.508c0,1.496,1.212,2.708,2.707,2.708h24.508c1.495,0,2.707-1.212,2.707-2.707v-24.507c0-1.495-1.212-2.707-2.707-2.707
						V188.236z M187.212,214.072c0,0.435-0.353,0.788-0.788,0.788h-3.353c-0.434,0-0.787-0.353-0.787-0.788v-14.055
						c0-0.435,0.353-0.788,0.788-0.788h3.354c0.435,0,0.788,0.352,0.788,0.787v14.055L187.212,214.072z M184.748,197.904
						c-1.76,0-3.185-1.426-3.185-3.185s1.426-3.186,3.185-3.186s3.185,1.426,3.185,3.185s-1.426,3.184-3.185,3.184V197.904z
						 M204.734,214.136c0,0.4-0.324,0.724-0.724,0.724h-3.598c-0.4,0-0.724-0.324-0.724-0.724v-6.593c0-0.983,0.288-4.31-2.57-4.31
						c-2.217,0-2.667,2.277-2.757,3.298v7.605c0,0.4-0.323,0.724-0.723,0.724h-3.48c-0.4,0-0.724-0.325-0.724-0.725v-14.182
						c0-0.4,0.324-0.724,0.724-0.724h3.48c0.4,0,0.724,0.323,0.724,0.723v1.226c0.823-1.235,2.045-2.187,4.647-2.187
						c5.76,0,5.728,5.382,5.728,8.34v6.803L204.734,214.136z"/>
				</g>
				<g id="Wordpress">
					<path fill="#FFFFFF" stroke="#000000" stroke-miterlimit="10" d="M408.734,485.322c0-1.547-0.24-3.045-0.673-4.448
						l-6.667,17.305c4.392-2.6,7.34-7.383,7.34-12.858V485.322z M389.082,499.48c1.484,0.5,3.073,0.767,4.728,0.767
						c1.73,0,3.386-0.293,4.93-0.834l-4.556-11.81L389.082,499.48z M379.494,481.104c-0.394,1.337-0.61,2.753-0.61,4.22
						c0,5.592,3.08,10.465,7.63,13.018l-6.974-17.144L379.494,481.104L379.494,481.104z"/>
					<path fill="#FFFFFF" stroke="#000000" stroke-miterlimit="10" d="M387.097,480.14l-0.64-0.028
						c-1.4-0.023-1.245,1.43-1.245,1.43l4.962,12.445l3.336-7.968l-1.862-4.743c-0.746-1.254-2.565-1.24-2.565-1.24v-0.66h10.434
						l-0.016,0.732l-1.085,0.066c-1.352,0-1.08,1.286-1.08,1.286l4.53,12.095l1.297-3.35c2.302-5.218,0.882-9.08,0.882-9.08
						c-2.305-4.744,0.608-5.425,0.608-5.425c0.184-0.026,0.357-0.04,0.527-0.05c-2.738-3.216-6.816-5.256-11.37-5.256
						c-6.155,0-11.442,3.73-13.723,9.052l6.985-0.072L387.097,480.14L387.097,480.14z"/>
					<path fill="#FFFFFF" stroke="#000000" stroke-miterlimit="10" d="M410.575,485.273c0,9.25-7.526,16.776-16.773,16.776
						c-9.25,0-16.778-7.528-16.778-16.777c0-9.25,7.526-16.775,16.778-16.775c9.247,0,16.773,7.523,16.773,16.775V485.273z
						 M393.802,467.725c-9.675,0-17.548,7.873-17.548,17.55s7.873,17.544,17.548,17.544c9.673,0,17.54-7.87,17.54-17.546
						s-7.867-17.55-17.54-17.55V467.725z"/>
				</g>
				<g id="Plotly">
					<path fill="#FFFFFF" stroke="#000000" stroke-miterlimit="10" d="M501.47,235.87h3.915v3.01h-3.916L501.47,235.87z
						 M506.364,232.753h3.916v6.128h-3.916V232.753z M511.186,217.416h3.916v21.465h-3.916V217.416z M516.014,223.525h3.916v15.355
						h-3.916V223.525z M520.855,220.48h3.916v18.4h-3.915L520.855,220.48z M525.804,229.68h3.916v9.2h-3.916V229.68z
						 M530.644,235.923h3.916v2.957h-3.916V235.923z"/>
				</g>
				<g id="Github">
					<g id="Layer_118">
						<g id="Codepen_2_">
							<g id="_Group__2_">
								
									<path id="_Path__2_" fill="#FFFFFF" stroke="#000000" stroke-width="1.001" stroke-linecap="round" stroke-linejoin="round" d="
									M359.99,217.913c-1.015,0.002-2.007-0.296-2.852-0.857l-13.68-9.114c-0.864-0.577-1.384-1.547-1.386-2.586v-10.688
									c0.002-1.04,0.522-2.01,1.387-2.586l13.678-9.114c0.842-0.572,1.834-0.88,2.85-0.888c1.015-0.002,2.007,0.296,2.852,0.857
									l13.68,9.13c0.864,0.577,1.384,1.547,1.386,2.586v10.688c-0.002,1.04-0.522,2.01-1.387,2.587l-13.68,9.114
									c-0.843,0.567-1.835,0.87-2.85,0.873L359.99,217.913z"/>
								
									<path id="_Path_2_2_" fill="#FFFFFF" stroke="#000000" stroke-width="1.001" stroke-linecap="round" stroke-linejoin="round" d="
									M362.326,213.24v-7.79l4.674-3.117l6.232,3.895L362.326,213.24z"/>
								
									<path id="_Path_3_2_" fill="#FFFFFF" stroke="#000000" stroke-width="1.001" stroke-linecap="round" stroke-linejoin="round" d="
									M357.652,213.24v-7.79l-4.674-3.117l-6.232,3.895L357.652,213.24z"/>
								
									<path id="_Path_4_2_" fill="none" stroke="#000000" stroke-width="1.001" stroke-linecap="round" stroke-linejoin="round" d="
									M357.652,186.754v7.79l-4.674,3.115l-6.232-3.896L357.652,186.754z"/>
								
									<path id="_Path_5_2_" fill="#FFFFFF" stroke="#000000" stroke-width="1.001" stroke-linecap="round" stroke-linejoin="round" d="
									M362.326,186.754v7.79l4.674,3.115l6.232-3.896L362.326,186.754z"/>
								
									<path id="_Path_6_2_" fill="#FFFFFF" stroke="#000000" stroke-width="1.001" stroke-linecap="round" stroke-linejoin="round" d="
									M374.79,202.333l-3.895-2.337l3.895-2.337V202.333z"/>
								
									<path id="_Path_7_2_" fill="none" stroke="#000000" stroke-width="1.001" stroke-linecap="round" stroke-linejoin="round" d="
									M345.188,197.66l3.895,2.336l-3.895,2.337V197.66z"/>
								
									<path id="_Path_8_2_" fill="#FFFFFF" stroke="#000000" stroke-width="1.001" stroke-linecap="round" stroke-linejoin="round" d="
									M359.99,203.112l4.673-3.116l-4.674-3.116l-4.675,3.116L359.99,203.112z"/>
							</g>
						</g>
					</g>
				</g>
			</g>
			<g id="Fireworks_Trails_Group">
				<g id="Trail_5">
					<path fill="none" stroke="#000000" stroke-miterlimit="10" d="M306.397,180.304c17.703,19.98,27.976,50.273,79.033,236.142"/>
				</g>
				<g id="Trail_4">
					<path fill="none" stroke="#000000" stroke-miterlimit="10" d="M130.982,208c-70.816,45.066-3.215,148.956-16.907,219.15"/>
				</g>
				<g id="Trail_3">
					<path fill="none" stroke="#000000" stroke-miterlimit="10" d="M267.79,215.487c-17.85,21.493-65.604,84.12-70.336,128.846"/>
				</g>
				<g id="Trail_2">
					<path fill="none" stroke="#000000" stroke-miterlimit="10" d="M405.135,188c-9.582,63.928,9.076,165.76,1.807,242.135"/>
				</g>
				<g id="Trail_1">
					<path fill="none" stroke="#000000" stroke-miterlimit="10" d="M169.914,199c0,75.4-64.297,180.705-18.923,232.5"/>
				</g>
				<path fill="none" stroke="#000000" stroke-width="2.835" stroke-miterlimit="10" d="M473,423l-2-67"/>
			</g>
			<g id="London_Skyline">
				<g id="Milenium_wheel">
					<g id="Layer_40">
						<path fill="none" stroke="#000000" stroke-miterlimit="10" d="M382.893,350.063l23.812,81.437 M382.893,350.063l-23.23,81.437
							"/>
						<circle fill="none" cx="382.289" cy="350.083" r="5.75"/>
					</g>
					<g id="Mil_Wheel_Main">
						<g id="Inner_x5F_ring">
							<circle fill="none" stroke="#000000" stroke-miterlimit="10" cx="382.893" cy="350.063" r="60.979"/>
						</g>
						<g id="Outer_x5F_ring">
							<circle fill="none" stroke="#000000" stroke-miterlimit="10" cx="382.893" cy="350.063" r="66.979"/>
						</g>
						<g id="Layer_39_copy_3">
						</g>
						<g id="Layer_41">
						</g>
						<g id="Capsules">
							<circle fill="none" stroke="#000000" stroke-miterlimit="10" cx="423.123" cy="290.673" r="7.514"/>
							<circle fill="none" stroke="#000000" stroke-miterlimit="10" cx="388.039" cy="278.514" r="7.514"/>
							<circle fill="none" stroke="#000000" stroke-miterlimit="10" cx="351.575" cy="285.527" r="7.514"/>
							<circle fill="none" stroke="#000000" stroke-miterlimit="10" cx="323.503" cy="309.832" r="7.514"/>
							<circle fill="none" stroke="#000000" stroke-miterlimit="10" cx="311.344" cy="344.917" r="7.514"/>
							<circle fill="none" stroke="#000000" stroke-miterlimit="10" cx="318.357" cy="381.38" r="7.514"/>
							<circle fill="none" stroke="#000000" stroke-miterlimit="10" cx="342.662" cy="409.452" r="7.514"/>
							<circle fill="none" stroke="#000000" stroke-miterlimit="10" cx="377.747" cy="421.611" r="7.514"/>
							<circle fill="none" stroke="#000000" stroke-miterlimit="10" cx="414.21" cy="414.598" r="7.514"/>
							<circle fill="none" stroke="#000000" stroke-miterlimit="10" cx="442.282" cy="390.293" r="7.514"/>
							<circle fill="none" stroke="#000000" stroke-miterlimit="10" cx="454.441" cy="355.208" r="7.514"/>
							<circle fill="none" stroke="#000000" stroke-miterlimit="10" cx="447.428" cy="318.745" r="7.514"/>
						</g>
						<g id="Centre">
							<circle fill="none" stroke="#000000" stroke-miterlimit="10" cx="382.893" cy="350.063" r="2.552"/>
						</g>
					</g>
				</g>
				<g id="Big_Ben">
					<g id="Layer_3">
						<path fill="#FFFFFF" stroke="#000000" stroke-width="2" stroke-miterlimit="10" d="M176.54,336h34v101.59h-34V336z"/>
					</g>
					<g id="Layer_4">
						<path fill="#FFFFFF" stroke="#000000" stroke-width="2" stroke-miterlimit="10" d="M173.54,292.5h39v40.25h-39V292.5z
							 M174.622,332.75h37.5V336h-37.5V332.75z"/>
						<path fill="#FFFFFF" stroke="#000000" stroke-width="2" stroke-miterlimit="10" d="M177.54,296.625h31.874v32.625H177.54
							V296.625z"/>
					</g>
					<g id="Layer_5">
						<circle fill="none" stroke="#000000" stroke-width="2" stroke-miterlimit="10" cx="193.539" cy="313.614" r="13.25"/>
						<circle fill="none" stroke="#000000" stroke-width="2" stroke-miterlimit="10" cx="193.625" cy="313.163" r="10.413"/>
					</g>
					<g id="Layer_6">
						<circle fill="none" stroke="#000000" stroke-width="2" stroke-miterlimit="10" cx="193.726" cy="313.688" r="2.188"/>
					</g>
					<g id="Hands">
						<path id="Big_hand" fill="none" stroke="#000000" stroke-width="2" stroke-miterlimit="10" d="M193.726,313.688L201.18,306"/>
						<path id="Small_hand" fill="none" stroke="#000000" stroke-width="2" stroke-miterlimit="10" d="M193.726,313.688
							l-4.687-4.563"/>
					</g>
					<g id="Layer_8">
						<path fill="#FFFFFF" stroke="#000000" stroke-width="2" stroke-miterlimit="10" d="M175.04,292.5l6.374-12.25V265h4.25
							l7.375-23.375v-12h0.874v12l7.625,23.25h3.874v14.5l6.375,13.125H175.04z"/>
					</g>
					<g id="Layer_9">
						<path fill="none" stroke="#000000" stroke-width="2" stroke-miterlimit="10" d="M182.29,339.25v21.625 M188.414,339.25v21.625
							 M194.54,339.25v21.625 M199.664,339.25v21.625 M205.54,339.25v21.625"/>
					</g>
					<g id="Layer_9_copy">
						<path fill="none" stroke="#000000" stroke-width="2" stroke-miterlimit="10" d="M182,368.375V390 M188.125,368.375V390
							 M194.25,368.375V390 M199.375,368.375V390 M205.25,368.375V390"/>
					</g>
					<g id="Layer_9_copy_2">
						<path fill="none" stroke="#000000" stroke-width="2" stroke-miterlimit="10" d="M181.914,398.25v21.625 M188.04,398.25v21.625
							 M194.164,398.25v21.625 M199.29,398.25v21.625 M205.164,398.25v21.625"/>
					</g>
				</g>
				<g id="Tower_Bridge">
					<g id="Layer_14">
						<path fill="#FFFFFF" stroke="#000000" stroke-width="2" stroke-miterlimit="10" d="M259.79,376.25h83.5V370h-37.5l-4.25-2.75
							l-4.75,3.25l-37-0.5V376.25z"/>
					</g>
					<g id="Left_x5F_bridge">
						<g id="Layer_17">
							<g id="Layer_13">
								<path fill="#FFFFFF" stroke="#000000" stroke-width="2" stroke-miterlimit="10" d="M242.04,364.25h17.75V382h-17.75
									L242.04,364.25z"/>
							</g>
							<g id="Layer_15">
								<path fill="#FFFFFF" stroke="#000000" stroke-width="2" stroke-miterlimit="10" d="M244.29,382h13.75v33.5h-13.75
									L244.29,382z"/>
							</g>
						</g>
						<g id="Layer_18">
							<path fill="#FFFFFF" stroke="#000000" stroke-miterlimit="10" d="M242.04,364.25h-2.626l2.625-1.875l0.624-2.625l1.625-13.25
								l0.75,6.875l1.624,4.125l3.625-15.375v-8.375h0.874v8.375l4.25,14.625l0.875-2.625l0.874-7.75l0.875,8l1.75,6.5v1.25
								l2.874,2.125h-2.875H242.04z"/>
						</g>
						<g id="Layer_19">
							<path fill="none" stroke="#000000" stroke-miterlimit="10" d="M246.664,370.125l0.125,7 M251.1,370.125l0.126,7
								 M255.99,370.125l0.124,7 M244.29,387.375L258.04,387 M244.29,390.375l13.75-0.125 M244.29,401.125l13.75-0.25
								 M246.79,403.25v1.25 M255.164,403.25v1.25 M249.414,403.875h2.75V413h-2.75V403.875z"/>
						</g>
						<g id="Layer_20">
							<path fill="#FFFFFF" stroke="#000000" stroke-width="2" stroke-miterlimit="10" d="M210.54,416h54.124v5h-28.25l-0.125-2.5
								h-25.75L210.54,416z M233.414,421h34.375v10.5h-34.376L233.414,421z"/>
						</g>
						<g id="Layer_21">
							<path fill="#FFFFFF" stroke="#000000" stroke-width="2" stroke-miterlimit="10" d="M264.664,416l33.125-15.125l1.624,2.375
								L267.79,421h-3.126V416z"/>
						</g>
						<g id="Layer_23">
							<path fill="none" stroke="#000000" stroke-width="2" stroke-miterlimit="10" d="M210.54,402.125
								c0,0,29.644-14.875,31.196-22.938"/>
						</g>
						<g id="Layer_22">
							<path fill="none" stroke="#000000" stroke-width="2" stroke-miterlimit="10" d="M210.54,416h33.75v-34h-2.25v-3.25
								c0,0-16.626,24.5-31.5,29.688"/>
						</g>
						<g id="Layer_24">
							<path fill="none" stroke="#000000" stroke-width="2" stroke-miterlimit="10" d="M212.952,400.875V415.5 M220.322,396.808V416
								 M227.414,392.505V415.5 M233.993,387.94V416"/>
						</g>
					</g>
					<g id="Layer_16_copy">
						<g id="Layer_17_copy">
							<g id="Layer_13_copy">
							</g>
							<g id="Layer_15_copy">
							</g>
						</g>
						<g id="Layer_18_copy">
						</g>
						<g id="Layer_19_copy">
						</g>
						<g id="Layer_20_copy">
						</g>
						<g id="Layer_21_copy">
						</g>
						<g id="Layer_23_copy">
						</g>
						<g id="Layer_22_copy">
						</g>
						<g id="Right_x5F_bridge">
							<path fill="#FFFFFF" stroke="#000000" stroke-width="2" stroke-miterlimit="10" d="M344.164,364.25h17.75V382h-17.75V364.25z
								 M345.914,382h13.75v33.5h-13.75V382z"/>
							<path fill="#FFFFFF" stroke="#000000" stroke-miterlimit="10" d="M361.914,364.25h2.625l-2.626-1.875l-0.625-2.625
								l-1.626-13.25l-0.75,6.875l-1.625,4.125l-3.626-15.375v-8.375h-0.875v8.375l-4.25,14.625l-0.876-2.625l-0.875-7.75l-0.876,8
								l-1.75,6.5v1.25l-2.875,2.125h2.874H361.914z"/>
							<path fill="none" stroke="#000000" stroke-miterlimit="10" d="M357.29,370.125l-0.126,7 M352.85,370.125l-0.124,7
								 M347.963,370.125l-0.125,7 M359.664,387.375L345.914,387 M359.664,390.375l-13.75-0.125 M359.664,401.125l-13.75-0.25
								 M357.164,403.25v1.25 M348.79,403.25v1.25"/>
							<path fill="#FFFFFF" stroke="#000000" stroke-miterlimit="10" d="M351.79,403.875h2.75V413h-2.75V403.875z"/>
							<path fill="#FFFFFF" stroke="#000000" stroke-width="2" stroke-miterlimit="10" d="M393.414,416H339.29v5h28.25l0.124-2.5
								h25.75V416z M336.164,421h34.375v10.5h-34.376L336.164,421z M339.29,416l-33.126-15.125l-1.625,2.375L336.163,421h3.125
								L339.29,416z"/>
							<path fill="none" stroke="#000000" stroke-width="2" stroke-miterlimit="10" d="M393.414,402.125
								c0,0-29.645-14.875-31.198-22.938 M393.414,416h-33.75v-34h2.25v-3.25c0,0,16.625,24.5,31.5,29.688 M391,400.875V415.5
								 M383.63,396.808V416 M376.54,392.505V415.5 M369.96,387.94V416"/>
						</g>
					</g>
				</g>
				<g id="Parliment">
					<g id="Build">
						<path id="Main_x5F_layer_3_" fill="#FFFFFF" stroke="#000000" stroke-width="2" stroke-miterlimit="10" d="M156.54,376h20
							v61.59h-20V376z"/>
						<g id="Layer_46">
							<path fill="#FFFFFF" stroke="#000000" stroke-width="2" stroke-miterlimit="10" d="M156.54,376l3-10l1.75,5h9.5l1.75-5l3,10
								H156.54z"/>
						</g>
						<g id="Layer_47">
							<path fill="none" stroke="#000000" stroke-width="2" stroke-miterlimit="10" d="M161.79,406.172v5.5 M169.54,406.172v6.75
								 M162.164,418.078v5.5 M169.914,418.078v6.75 M159.54,402.125h14 M159.54,414.25h14"/>
						</g>
					</g>
					<g id="Build_copy">
						<path id="Main_x5F_layer_2_" fill="#FFFFFF" stroke="#000000" stroke-width="2" stroke-miterlimit="10" d="M61.54,375.08h20
							v61.59h-20V375.08z"/>
						<g id="Layer_46_copy">
							<path fill="#FFFFFF" stroke="#000000" stroke-width="2" stroke-miterlimit="10" d="M61.54,375.08l3-10l1.75,5h9.5l1.75-5
								l3,10H61.54z"/>
						</g>
						<g id="Layer_47_copy">
							<path fill="none" stroke="#000000" stroke-width="2" stroke-miterlimit="10" d="M66.79,405.25v5.5 M74.54,405.25V412
								 M67.164,417.158v5.5 M74.914,417.158v6.75 M64.54,401.204h14 M64.54,413.33h14"/>
						</g>
						<g id="Layer_51">
							<path fill="none" stroke="#000000" stroke-width="2" stroke-miterlimit="10" d="M156.914,388.25h19.625 M61.726,387.94H81.35
								"/>
						</g>
					</g>
					<g id="Inter_Build">
						<path id="main_x5F_right_2_" fill="#FFFFFF" stroke="#000000" stroke-width="2" stroke-miterlimit="10" d="M81.35,387.94
							h14.44v49.65H81.35V387.94z"/>
						<path id="main_x5F_left_2_" fill="#FFFFFF" stroke="#000000" stroke-width="2" stroke-miterlimit="10" d="M142.79,387.94
							h13.75v49.65h-13.75V387.94z"/>
					</g>
					<g id="Middle_Build">
						<path id="Mid_x5F_main_x5F_layer" fill="#FFFFFF" stroke="#000000" stroke-width="2" stroke-miterlimit="10" d="M95.79,376h47
							v61.59h-47L95.79,376z"/>
						<g id="Layer_54">
						</g>
						<path fill="#FFFFFF" stroke="#000000" stroke-width="2" stroke-miterlimit="10" d="M95.79,376l2.75-10l2.25,5h10l1.75-5l3,10
							h7.75l2.75-10l2,5h9.25l2.5-5.92l3,10"/>
						<g id="Layer_55">
							<path fill="none" stroke="#000000" stroke-width="2" stroke-miterlimit="10" d="M101.29,378.75v5.75 M108.29,378.75v5.75
								 M115.54,378.75v5.75 M123.04,378.75v5.75 M129.54,378.75v5.75 M136.54,378.75v5.75 M88.476,392.415v5.75 M67.164,391.79
								v5.75 M75.997,391.79v5.75 M66.622,378.75v5.75 M75.455,378.75v5.75 M161.893,391.895v5.75 M170.726,391.895v5.75
								 M161.35,378.855v5.75 M170.184,378.855v5.75 M108.414,390.656v5.75 M115.664,390.656v5.75 M123.164,390.656v5.75
								 M129.664,390.656v5.75 M136.664,390.656v5.75 M88.664,407.18v5.75 M108.6,405.422v5.75 M115.85,405.422v5.75
								 M123.35,405.422v5.75 M129.85,405.422v5.75 M136.85,405.422v5.75 M88.79,419.087v5.75 M101.132,392.71v5.75 M101.32,407.477
								v5.75 M101.445,419.383v5.75 M149.476,391.79v5.75 M149.664,406.556v5.75 M149.79,418.462v5.75 M108.726,417.328v5.75
								 M115.976,417.328v5.75 M123.476,417.328v5.75 M129.976,417.328v5.75 M136.976,417.328v5.75"/>
						</g>
						<g id="Layer_131">
							<path fill="none" stroke="#000000" stroke-width="2" stroke-miterlimit="10" d="M95.79,387.94h47"/>
						</g>
					</g>
				</g>
				<g id="Shard">
					<g id="Main_Layer">
						<path fill="#FFFFFF" stroke="#000000" stroke-width="2" stroke-miterlimit="10" d="M415.608,441.446l40.737-264.642
							l40.737,264.642H415.608z"/>
					</g>
					<g id="Division_Line">
						<path fill="none" stroke="#000000" stroke-width="2" stroke-miterlimit="10" d="M447.428,441.446l14.527-180.383
							 M461.955,261.063l6.387-6.32"/>
					</g>
					<g id="extrashard">
						<path fill="#FFFFFF" stroke="#000000" stroke-width="1.5" stroke-miterlimit="10" d="M463.015,194.754l7.968-12.052
							l5.18,102.825L463.015,194.754z"/>
					</g>
					<g id="Airplane_x5F_light">
						<circle fill="none" stroke="#000000" stroke-miterlimit="10" cx="462.576" cy="186.236" r="3.211"/>
					</g>
				</g>
				<g id="CityHall">
					<path id="Main_x5F_layer_1_" fill="#FFFFFF" stroke="#000000" stroke-width="2" stroke-miterlimit="10" d="M425.456,427.256
						c1.383-1.644,2.667-3.5,3.81-5.595c1.2-2.196,2.243-4.656,3.087-7.41c0.762-2.49,1.36-5.22,1.76-8.21
						c0.253-1.896,0.484-3.822,0.685-5.763c0.408-3.95,0.688-7.96,0.758-11.877c0.072-4.026-0.077-7.954-0.537-11.62
						c-0.373-2.974-0.95-5.776-1.776-8.32c-0.263-0.807-0.55-1.59-0.866-2.343c-2.85-6.82-7.9-11.266-16.266-11.266
						c-20.987,0-49.25,28.297-53,54c-1.153,7.907-1.585,13.9-0.71,18.403"/>
					<g id="CHBase">
						<path fill="#FFFFFF" stroke="#000000" stroke-width="2" stroke-miterlimit="10" d="M366.306,427.253h57.28v10.125h-57.28
							V427.253z"/>
					</g>
					<g id="Detail">
						<path fill="none" stroke="#000000" stroke-miterlimit="10" d="M396.115,361.662l-9.568,13.59 M386.547,375.253h8.4
							 M394.946,375.253l-12.65,16.625 M382.297,391.878h10.375 M392.672,391.878l-17.125,17.125 M375.547,409.003h15.2
							 M390.746,409.003l-18.1,18.1 M392.672,368.457h40.57 M396.115,361.662h33.823 M394.946,375.253h39.86 M388.62,383.565h46.906
							 M392.672,391.878h42.768 M384.667,399.882h50.13 M390.746,409.003h42.792 M382.297,418.052h48.692"/>
						<path fill="none" stroke="#000000" stroke-width="0.5" stroke-miterlimit="10" d="M372.647,427.102l-9.263-19.877
							 M379.736,420.013l-12.275-25.388 M382.297,402.253l-8.698-18.688 M386.98,385.723l-5.284-11.11 M390.122,370.175l-1.5-3.013
							 M362.403,427.253l18.06-18.25 M362.65,412.247l20.497-20.37 M366.836,396.042l20.648-20.79 M363.91,404.757l29.428-29.504
							 M361.938,420.013l28.184-28.135 M367.46,427.102l18.128-18.1 M370.802,388.218l21.87-21.665 M376.524,423.224l-10.96-23.948
							 M367.46,427.102l-4.81-10.488 M378.624,405.925l-7.58-16.436 M386.547,398.003l-9.045-19.457 M390.122,381.593l-5.455-10.876
							"/>
						<path fill="#FFFFFF" stroke="#000000" stroke-miterlimit="10" d="M366.306,427.253h57.28"/>
						<path fill="none" stroke="#000000" stroke-miterlimit="10" d="M366.306,427.253h-4.368 M423.586,427.253h1.866"/>
					</g>
				</g>
				<g id="Strata">
					<g id="Main_x5F_layer">
						<path fill="#FFFFFF" stroke="#000000" stroke-width="2" stroke-miterlimit="10" d="M545.333,278.01
							c0,14.323-55.333,13.68-55.333,0v161.03h55.333V278.01z"/>
						<path fill="none" stroke="#000000" stroke-miterlimit="10" d="M490,309.832h55.333"/>
						<circle fill="#FFFFFF" stroke="#000000" stroke-miterlimit="10" cx="500.031" cy="296.688" r="7.792"/>
						<circle fill="#FFFFFF" stroke="#000000" stroke-miterlimit="10" cx="517.698" cy="300.063" r="7.792"/>
						<circle fill="#FFFFFF" stroke="#000000" stroke-miterlimit="10" cx="535.281" cy="296.688" r="7.792"/>
					</g>
					<g id="Fan_x5F_cowling">
					</g>
					<g id="Windows_2_">
						<path fill="#FFFFFF" stroke="#000000" stroke-miterlimit="10" d="M490,312h2.208v3.5H490V312z M492.208,312h2.208v3.5h-2.208
							V312z M494.417,312h2.208v3.5h-2.208V312z M496.687,312h2.208v3.5h-2.208V312z M501.104,312h2.208v3.5h-2.208V312z M505,312
							h2.208v3.5H505V312z M507.208,312h2.208v3.5h-2.208V312z M509.417,312h2.208v3.5h-2.208V312z M511.688,312h2.208v3.5h-2.208
							V312z M516.104,312h2.208v3.5h-2.208V312z M520.167,312h2.208v3.5h-2.208V312z M522.375,312h2.208v3.5h-2.208V312z
							 M524.583,312h2.208v3.5h-2.207L524.583,312z M526.854,312h2.208v3.5h-2.208V312z M531.27,312h2.21v3.5h-2.21V312z
							 M536.438,312h2.208v3.5h-2.208V312z M538.646,312h2.208v3.5h-2.208V312z M540.854,312h2.208v3.5h-2.208V312z M543.125,312
							h2.208v3.5h-2.208V312z M492.917,317.5h2.208v3.5h-2.208V317.5z M496.812,317.5h2.208v3.5h-2.208V317.5z"/>
						<path fill="#FFFFFF" stroke="#000000" stroke-miterlimit="10" d="M499.02,317.5h2.21v3.5h-2.21V317.5z"/>
						<path fill="#FFFFFF" stroke="#000000" stroke-miterlimit="10" d="M501.23,317.5h2.207v3.5h-2.208L501.23,317.5z M503.5,317.5
							h2.208v3.5H503.5V317.5z M507.917,317.5h2.208v3.5h-2.208V317.5z M511.98,317.5h2.207v3.5h-2.208L511.98,317.5z
							 M514.188,317.5h2.208v3.5h-2.208V317.5z M516.396,317.5h2.208v3.5h-2.208V317.5z M518.667,317.5h2.208v3.5h-2.208V317.5z
							 M523.083,317.5h2.208v3.5h-2.207L523.083,317.5z M528.25,317.5h2.208v3.5h-2.208V317.5z M530.458,317.5h2.208v3.5h-2.208
							V317.5z M532.667,317.5h2.208v3.5h-2.208V317.5z M536.438,317.5h2.208v3.5h-2.208V317.5z M543.125,317.5h2.208v3.5h-2.208
							V317.5z M540.854,317.5h2.208v3.5h-2.208V317.5z M490,317.5h2.208v3.5H490V317.5z M490,322.75h2.208v3.5H490V322.75z
							 M492.208,322.75h2.208v3.5h-2.208V322.75z M494.417,322.75h2.208v3.5h-2.208V322.75z M496.687,322.75h2.208v3.5h-2.208
							V322.75z M501.104,322.75h2.208v3.5h-2.208V322.75z M505,322.75h2.208v3.5H505V322.75z M507.208,322.75h2.208v3.5h-2.208
							V322.75z M509.417,322.75h2.208v3.5h-2.208V322.75z M511.688,322.75h2.208v3.5h-2.208V322.75z M516.104,322.75h2.208v3.5
							h-2.208V322.75z M520.167,322.75h2.208v3.5h-2.208V322.75z M522.375,322.75h2.208v3.5h-2.208V322.75z M524.583,322.75h2.208
							v3.5h-2.207L524.583,322.75z M526.854,322.75h2.208v3.5h-2.208V322.75z M531.27,322.75h2.21v3.5h-2.21V322.75z
							 M536.438,322.75h2.208v3.5h-2.208V322.75z M538.646,322.75h2.208v3.5h-2.208V322.75z M540.854,322.75h2.208v3.5h-2.208
							V322.75z M543.125,322.75h2.208v3.5h-2.208V322.75z M492.917,328.25h2.208v3.5h-2.208V328.25z M496.812,328.25h2.208v3.5
							h-2.208V328.25z"/>
						<path fill="#FFFFFF" stroke="#000000" stroke-miterlimit="10" d="M499.02,328.25h2.21v3.5h-2.21V328.25z"/>
						<path fill="#FFFFFF" stroke="#000000" stroke-miterlimit="10" d="M501.23,328.25h2.207v3.5h-2.208L501.23,328.25z
							 M503.5,328.25h2.208v3.5H503.5V328.25z M507.917,328.25h2.208v3.5h-2.208V328.25z M511.98,328.25h2.207v3.5h-2.208
							L511.98,328.25z M514.188,328.25h2.208v3.5h-2.208V328.25z M516.396,328.25h2.208v3.5h-2.208V328.25z M518.667,328.25h2.208
							v3.5h-2.208V328.25z M523.083,328.25h2.208v3.5h-2.207L523.083,328.25z M528.25,328.25h2.208v3.5h-2.208V328.25z
							 M530.458,328.25h2.208v3.5h-2.208V328.25z M532.667,328.25h2.208v3.5h-2.208V328.25z M536.438,328.25h2.208v3.5h-2.208
							V328.25z M543.125,328.25h2.208v3.5h-2.208V328.25z M540.854,328.25h2.208v3.5h-2.208V328.25z M490,328.25h2.208v3.5H490
							V328.25z M490,334h2.208v3.5H490V334z M492.208,334h2.208v3.5h-2.208V334z M494.417,334h2.208v3.5h-2.208V334z M496.687,334
							h2.208v3.5h-2.208V334z M501.104,334h2.208v3.5h-2.208V334z M505,334h2.208v3.5H505V334z M507.208,334h2.208v3.5h-2.208V334z
							 M509.417,334h2.208v3.5h-2.208V334z M511.688,334h2.208v3.5h-2.208V334z M516.104,334h2.208v3.5h-2.208V334z M520.167,334
							h2.208v3.5h-2.208V334z M522.375,334h2.208v3.5h-2.208V334z M524.583,334h2.208v3.5h-2.207L524.583,334z M526.854,334h2.208
							v3.5h-2.208V334z M531.27,334h2.21v3.5h-2.21V334z M536.438,334h2.208v3.5h-2.208V334z M538.646,334h2.208v3.5h-2.208V334z
							 M540.854,334h2.208v3.5h-2.208V334z M543.125,334h2.208v3.5h-2.208V334z M492.917,339.5h2.208v3.5h-2.208V339.5z
							 M496.812,339.5h2.208v3.5h-2.208V339.5z"/>
						<path fill="#FFFFFF" stroke="#000000" stroke-miterlimit="10" d="M499.02,339.5h2.21v3.5h-2.21V339.5z"/>
						<path fill="#FFFFFF" stroke="#000000" stroke-miterlimit="10" d="M501.23,339.5h2.207v3.5h-2.208L501.23,339.5z M503.5,339.5
							h2.208v3.5H503.5V339.5z M507.917,339.5h2.208v3.5h-2.208V339.5z M511.98,339.5h2.207v3.5h-2.208L511.98,339.5z
							 M514.188,339.5h2.208v3.5h-2.208V339.5z M516.396,339.5h2.208v3.5h-2.208V339.5z M518.667,339.5h2.208v3.5h-2.208V339.5z
							 M523.083,339.5h2.208v3.5h-2.207L523.083,339.5z M528.25,339.5h2.208v3.5h-2.208V339.5z M530.458,339.5h2.208v3.5h-2.208
							V339.5z M532.667,339.5h2.208v3.5h-2.208V339.5z M536.438,339.5h2.208v3.5h-2.208V339.5z M543.125,339.5h2.208v3.5h-2.208
							V339.5z M540.854,339.5h2.208v3.5h-2.208V339.5z M490,339.5h2.208v3.5H490V339.5z M490,344.754h2.208v3.5H490V344.754z
							 M492.208,344.754h2.208v3.5h-2.208V344.754z M494.417,344.754h2.208v3.5h-2.208V344.754z M496.687,344.754h2.208v3.5h-2.208
							V344.754z M501.104,344.754h2.208v3.5h-2.208V344.754z M505,344.754h2.208v3.5H505V344.754z M507.208,344.754h2.208v3.5
							h-2.208V344.754z M509.417,344.754h2.208v3.5h-2.208V344.754z M511.688,344.754h2.208v3.5h-2.208V344.754z M516.104,344.754
							h2.208v3.5h-2.208V344.754z M520.167,344.754h2.208v3.5h-2.208V344.754z M522.375,344.754h2.208v3.5h-2.208V344.754z
							 M524.583,344.754h2.208v3.5h-2.207L524.583,344.754z M526.854,344.754h2.208v3.5h-2.208V344.754z M531.27,344.754h2.21v3.5
							h-2.21V344.754z M536.438,344.754h2.208v3.5h-2.208V344.754z M538.646,344.754h2.208v3.5h-2.208V344.754z M540.854,344.754
							h2.208v3.5h-2.208V344.754z M543.125,344.754h2.208v3.5h-2.208V344.754z M492.917,350.254h2.208v3.5h-2.208V350.254z
							 M496.812,350.254h2.208v3.5h-2.208V350.254z"/>
						<path fill="#FFFFFF" stroke="#000000" stroke-miterlimit="10" d="M499.02,350.254h2.21v3.5h-2.21V350.254z"/>
						<path fill="#FFFFFF" stroke="#000000" stroke-miterlimit="10" d="M501.23,350.254h2.207v3.5h-2.208L501.23,350.254z
							 M503.5,350.254h2.208v3.5H503.5V350.254z M507.917,350.254h2.208v3.5h-2.208V350.254z M511.98,350.254h2.207v3.5h-2.208
							L511.98,350.254z M514.188,350.254h2.208v3.5h-2.208V350.254z M516.396,350.254h2.208v3.5h-2.208V350.254z M518.667,350.254
							h2.208v3.5h-2.208V350.254z M523.083,350.254h2.208v3.5h-2.207L523.083,350.254z M528.25,350.254h2.208v3.5h-2.208V350.254z
							 M530.458,350.254h2.208v3.5h-2.208V350.254z M532.667,350.254h2.208v3.5h-2.208V350.254z M536.438,350.254h2.208v3.5h-2.208
							V350.254z M543.125,350.254h2.208v3.5h-2.208V350.254z M540.854,350.254h2.208v3.5h-2.208V350.254z M490,350.254h2.208v3.5
							H490V350.254z M489.833,356.31h2.208v3.5h-2.207L489.833,356.31z M492.042,356.31h2.208v3.5h-2.208V356.31z M494.25,356.31
							h2.208v3.5h-2.208V356.31z M496.52,356.31h2.21v3.5h-2.21V356.31z M500.938,356.31h2.208v3.5h-2.208V356.31z M504.833,356.31
							h2.208v3.5h-2.207L504.833,356.31z M507.042,356.31h2.208v3.5h-2.208V356.31z M509.25,356.31h2.208v3.5h-2.208V356.31z
							 M511.52,356.31h2.21v3.5h-2.21V356.31z M515.938,356.31h2.208v3.5h-2.208V356.31z M520,356.31h2.208v3.5H520V356.31z
							 M522.208,356.31h2.208v3.5h-2.208V356.31z M524.417,356.31h2.208v3.5h-2.208V356.31z M526.688,356.31h2.208v3.5h-2.208
							V356.31z M531.104,356.31h2.208v3.5h-2.208V356.31z M536.27,356.31h2.21v3.5h-2.21V356.31z"/>
						<path fill="#FFFFFF" stroke="#000000" stroke-miterlimit="10" d="M538.48,356.31h2.207v3.5h-2.208L538.48,356.31z
							 M540.688,356.31h2.208v3.5h-2.208V356.31z M542.958,356.31h2.208v3.5h-2.208V356.31z M492.75,361.81h2.208v3.5h-2.208V361.81
							z M496.646,361.81h2.208v3.5h-2.208V361.81z"/>
						<path fill="#FFFFFF" stroke="#000000" stroke-miterlimit="10" d="M498.854,361.81h2.208v3.5h-2.208V361.81z M501.063,361.81
							h2.208v3.5h-2.207L501.063,361.81z M503.333,361.81h2.208v3.5h-2.207L503.333,361.81z M507.75,361.81h2.208v3.5h-2.208V361.81
							z M511.813,361.81h2.208v3.5h-2.207L511.813,361.81z"/>
						<path fill="#FFFFFF" stroke="#000000" stroke-miterlimit="10" d="M514.02,361.81h2.21v3.5h-2.21V361.81z"/>
						<path fill="#FFFFFF" stroke="#000000" stroke-miterlimit="10" d="M516.23,361.81h2.207v3.5h-2.208L516.23,361.81z
							 M518.5,361.81h2.208v3.5H518.5V361.81z M522.917,361.81h2.208v3.5h-2.208V361.81z M528.083,361.81h2.208v3.5h-2.207
							L528.083,361.81z M530.292,361.81h2.208v3.5h-2.208V361.81z M532.5,361.81h2.208v3.5H532.5V361.81z M536.27,361.81h2.21v3.5
							h-2.21V361.81z M542.958,361.81h2.208v3.5h-2.208V361.81z M540.688,361.81h2.208v3.5h-2.208V361.81z M489.833,361.81h2.208
							v3.5h-2.207L489.833,361.81z M489.833,367.06h2.208v3.5h-2.207L489.833,367.06z M492.042,367.06h2.208v3.5h-2.208V367.06z
							 M494.25,367.06h2.208v3.5h-2.208V367.06z M496.52,367.06h2.21v3.5h-2.21V367.06z M500.938,367.06h2.208v3.5h-2.208V367.06z
							 M504.833,367.06h2.208v3.5h-2.207L504.833,367.06z M507.042,367.06h2.208v3.5h-2.208V367.06z M509.25,367.06h2.208v3.5
							h-2.208V367.06z M511.52,367.06h2.21v3.5h-2.21V367.06z M515.938,367.06h2.208v3.5h-2.208V367.06z M520,367.06h2.208v3.5H520
							V367.06z M522.208,367.06h2.208v3.5h-2.208V367.06z M524.417,367.06h2.208v3.5h-2.208V367.06z M526.688,367.06h2.208v3.5
							h-2.208V367.06z M531.104,367.06h2.208v3.5h-2.208V367.06z M536.27,367.06h2.21v3.5h-2.21V367.06z"/>
						<path fill="#FFFFFF" stroke="#000000" stroke-miterlimit="10" d="M538.48,367.06h2.207v3.5h-2.208L538.48,367.06z
							 M540.688,367.06h2.208v3.5h-2.208V367.06z M542.958,367.06h2.208v3.5h-2.208V367.06z M492.75,372.56h2.208v3.5h-2.208V372.56
							z M496.646,372.56h2.208v3.5h-2.208V372.56z"/>
						<path fill="#FFFFFF" stroke="#000000" stroke-miterlimit="10" d="M498.854,372.56h2.208v3.5h-2.208V372.56z M501.063,372.56
							h2.208v3.5h-2.207L501.063,372.56z M503.333,372.56h2.208v3.5h-2.207L503.333,372.56z M507.75,372.56h2.208v3.5h-2.208V372.56
							z M511.813,372.56h2.208v3.5h-2.207L511.813,372.56z"/>
						<path fill="#FFFFFF" stroke="#000000" stroke-miterlimit="10" d="M514.02,372.56h2.21v3.5h-2.21V372.56z"/>
						<path fill="#FFFFFF" stroke="#000000" stroke-miterlimit="10" d="M516.23,372.56h2.207v3.5h-2.208L516.23,372.56z
							 M518.5,372.56h2.208v3.5H518.5V372.56z M522.917,372.56h2.208v3.5h-2.208V372.56z M528.083,372.56h2.208v3.5h-2.207
							L528.083,372.56z M530.292,372.56h2.208v3.5h-2.208V372.56z M532.5,372.56h2.208v3.5H532.5V372.56z M536.27,372.56h2.21v3.5
							h-2.21V372.56z M542.958,372.56h2.208v3.5h-2.208V372.56z M540.688,372.56h2.208v3.5h-2.208V372.56z M489.833,372.56h2.208
							v3.5h-2.207L489.833,372.56z M489.833,378.31h2.208v3.5h-2.207L489.833,378.31z M492.042,378.31h2.208v3.5h-2.208V378.31z
							 M494.25,378.31h2.208v3.5h-2.208V378.31z M496.52,378.31h2.21v3.5h-2.21V378.31z M500.938,378.31h2.208v3.5h-2.208V378.31z
							 M504.833,378.31h2.208v3.5h-2.207L504.833,378.31z M507.042,378.31h2.208v3.5h-2.208V378.31z M509.25,378.31h2.208v3.5
							h-2.208V378.31z M511.52,378.31h2.21v3.5h-2.21V378.31z M515.938,378.31h2.208v3.5h-2.208V378.31z M520,378.31h2.208v3.5H520
							V378.31z M522.208,378.31h2.208v3.5h-2.208V378.31z M524.417,378.31h2.208v3.5h-2.208V378.31z M526.688,378.31h2.208v3.5
							h-2.208V378.31z M531.104,378.31h2.208v3.5h-2.208V378.31z M536.27,378.31h2.21v3.5h-2.21V378.31z"/>
						<path fill="#FFFFFF" stroke="#000000" stroke-miterlimit="10" d="M538.48,378.31h2.207v3.5h-2.208L538.48,378.31z
							 M540.688,378.31h2.208v3.5h-2.208V378.31z M542.958,378.31h2.208v3.5h-2.208V378.31z M492.75,383.81h2.208v3.5h-2.208V383.81
							z M496.646,383.81h2.208v3.5h-2.208V383.81z"/>
						<path fill="#FFFFFF" stroke="#000000" stroke-miterlimit="10" d="M498.854,383.81h2.208v3.5h-2.208V383.81z M501.063,383.81
							h2.208v3.5h-2.207L501.063,383.81z M503.333,383.81h2.208v3.5h-2.207L503.333,383.81z M507.75,383.81h2.208v3.5h-2.208V383.81
							z M511.813,383.81h2.208v3.5h-2.207L511.813,383.81z"/>
						<path fill="#FFFFFF" stroke="#000000" stroke-miterlimit="10" d="M514.02,383.81h2.21v3.5h-2.21V383.81z"/>
						<path fill="#FFFFFF" stroke="#000000" stroke-miterlimit="10" d="M516.23,383.81h2.207v3.5h-2.208L516.23,383.81z
							 M518.5,383.81h2.208v3.5H518.5V383.81z M522.917,383.81h2.208v3.5h-2.208V383.81z M528.083,383.81h2.208v3.5h-2.207
							L528.083,383.81z M530.292,383.81h2.208v3.5h-2.208V383.81z M532.5,383.81h2.208v3.5H532.5V383.81z M536.27,383.81h2.21v3.5
							h-2.21V383.81z M542.958,383.81h2.208v3.5h-2.208V383.81z M540.688,383.81h2.208v3.5h-2.208V383.81z M489.833,383.81h2.208
							v3.5h-2.207L489.833,383.81z M489.833,389.065h2.208v3.5h-2.207L489.833,389.065z M492.042,389.065h2.208v3.5h-2.208V389.065z
							 M494.25,389.065h2.208v3.5h-2.208V389.065z M496.52,389.065h2.21v3.5h-2.21V389.065z M500.938,389.065h2.208v3.5h-2.208
							V389.065z M504.833,389.065h2.208v3.5h-2.207L504.833,389.065z M507.042,389.065h2.208v3.5h-2.208V389.065z M509.25,389.065
							h2.208v3.5h-2.208V389.065z M511.52,389.065h2.21v3.5h-2.21V389.065z M515.938,389.065h2.208v3.5h-2.208V389.065z
							 M520,389.065h2.208v3.5H520V389.065z M522.208,389.065h2.208v3.5h-2.208V389.065z M524.417,389.065h2.208v3.5h-2.208V389.065
							z M526.688,389.065h2.208v3.5h-2.208V389.065z M531.104,389.065h2.208v3.5h-2.208V389.065z M536.27,389.065h2.21v3.5h-2.21
							V389.065z"/>
						<path fill="#FFFFFF" stroke="#000000" stroke-miterlimit="10" d="M538.48,389.065h2.207v3.5h-2.208L538.48,389.065z
							 M540.688,389.065h2.208v3.5h-2.208V389.065z M542.958,389.065h2.208v3.5h-2.208V389.065z M492.75,394.565h2.208v3.5h-2.208
							V394.565z M496.646,394.565h2.208v3.5h-2.208V394.565z"/>
						<path fill="#FFFFFF" stroke="#000000" stroke-miterlimit="10" d="M498.854,394.565h2.208v3.5h-2.208V394.565z
							 M501.063,394.565h2.208v3.5h-2.207L501.063,394.565z M503.333,394.565h2.208v3.5h-2.207L503.333,394.565z M507.75,394.565
							h2.208v3.5h-2.208V394.565z M511.813,394.565h2.208v3.5h-2.207L511.813,394.565z"/>
						<path fill="#FFFFFF" stroke="#000000" stroke-miterlimit="10" d="M514.02,394.565h2.21v3.5h-2.21V394.565z"/>
						<path fill="#FFFFFF" stroke="#000000" stroke-miterlimit="10" d="M516.23,394.565h2.207v3.5h-2.208L516.23,394.565z
							 M518.5,394.565h2.208v3.5H518.5V394.565z M522.917,394.565h2.208v3.5h-2.208V394.565z M528.083,394.565h2.208v3.5h-2.207
							L528.083,394.565z M530.292,394.565h2.208v3.5h-2.208V394.565z M532.5,394.565h2.208v3.5H532.5V394.565z M536.27,394.565h2.21
							v3.5h-2.21V394.565z M542.958,394.565h2.208v3.5h-2.208V394.565z M540.688,394.565h2.208v3.5h-2.208V394.565z
							 M489.833,394.565h2.208v3.5h-2.207L489.833,394.565z M490,400.583h2.208v3.5H490V400.583z M492.208,400.583h2.208v3.5h-2.208
							V400.583z M494.417,400.583h2.208v3.5h-2.208V400.583z M496.687,400.583h2.208v3.5h-2.208V400.583z M501.104,400.583h2.208
							v3.5h-2.208V400.583z M505,400.583h2.208v3.5H505V400.583z M507.208,400.583h2.208v3.5h-2.208V400.583z M509.417,400.583
							h2.208v3.5h-2.208V400.583z M511.688,400.583h2.208v3.5h-2.208V400.583z M516.104,400.583h2.208v3.5h-2.208V400.583z
							 M520.167,400.583h2.208v3.5h-2.208V400.583z M522.375,400.583h2.208v3.5h-2.208V400.583z M524.583,400.583h2.208v3.5h-2.207
							L524.583,400.583z M526.854,400.583h2.208v3.5h-2.208V400.583z M531.27,400.583h2.21v3.5h-2.21V400.583z M536.438,400.583
							h2.208v3.5h-2.208V400.583z M538.646,400.583h2.208v3.5h-2.208V400.583z M540.854,400.583h2.208v3.5h-2.208V400.583z
							 M543.125,400.583h2.208v3.5h-2.208V400.583z M492.917,406.083h2.208v3.5h-2.208V406.083z M496.812,406.083h2.208v3.5h-2.208
							V406.083z"/>
						<path fill="#FFFFFF" stroke="#000000" stroke-miterlimit="10" d="M499.02,406.083h2.21v3.5h-2.21V406.083z"/>
						<path fill="#FFFFFF" stroke="#000000" stroke-miterlimit="10" d="M501.23,406.083h2.207v3.5h-2.208L501.23,406.083z
							 M503.5,406.083h2.208v3.5H503.5V406.083z M507.917,406.083h2.208v3.5h-2.208V406.083z M511.98,406.083h2.207v3.5h-2.208
							L511.98,406.083z M514.188,406.083h2.208v3.5h-2.208V406.083z M516.396,406.083h2.208v3.5h-2.208V406.083z M518.667,406.083
							h2.208v3.5h-2.208V406.083z M523.083,406.083h2.208v3.5h-2.207L523.083,406.083z M528.25,406.083h2.208v3.5h-2.208V406.083z
							 M530.458,406.083h2.208v3.5h-2.208V406.083z M532.667,406.083h2.208v3.5h-2.208V406.083z M536.438,406.083h2.208v3.5h-2.208
							V406.083z M543.125,406.083h2.208v3.5h-2.208V406.083z M540.854,406.083h2.208v3.5h-2.208V406.083z M490,406.083h2.208v3.5
							H490V406.083z M490,411.333h2.208v3.5H490V411.333z M492.208,411.333h2.208v3.5h-2.208V411.333z M494.417,411.333h2.208v3.5
							h-2.208V411.333z M496.687,411.333h2.208v3.5h-2.208V411.333z M501.104,411.333h2.208v3.5h-2.208V411.333z M505,411.333h2.208
							v3.5H505V411.333z M507.208,411.333h2.208v3.5h-2.208V411.333z M509.417,411.333h2.208v3.5h-2.208V411.333z M511.688,411.333
							h2.208v3.5h-2.208V411.333z M516.104,411.333h2.208v3.5h-2.208V411.333z M520.167,411.333h2.208v3.5h-2.208V411.333z
							 M522.375,411.333h2.208v3.5h-2.208V411.333z M524.583,411.333h2.208v3.5h-2.207L524.583,411.333z M526.854,411.333h2.208v3.5
							h-2.208V411.333z M531.27,411.333h2.21v3.5h-2.21V411.333z M536.438,411.333h2.208v3.5h-2.208V411.333z M538.646,411.333
							h2.208v3.5h-2.208V411.333z M540.854,411.333h2.208v3.5h-2.208V411.333z M543.125,411.333h2.208v3.5h-2.208V411.333z
							 M492.917,416.833h2.208v3.5h-2.208V416.833z M496.812,416.833h2.208v3.5h-2.208V416.833z"/>
						<path fill="#FFFFFF" stroke="#000000" stroke-miterlimit="10" d="M499.02,416.833h2.21v3.5h-2.21V416.833z"/>
						<path fill="#FFFFFF" stroke="#000000" stroke-miterlimit="10" d="M501.23,416.833h2.207v3.5h-2.208L501.23,416.833z
							 M503.5,416.833h2.208v3.5H503.5V416.833z M507.917,416.833h2.208v3.5h-2.208V416.833z M511.98,416.833h2.207v3.5h-2.208
							L511.98,416.833z M514.188,416.833h2.208v3.5h-2.208V416.833z M516.396,416.833h2.208v3.5h-2.208V416.833z M518.667,416.833
							h2.208v3.5h-2.208V416.833z M523.083,416.833h2.208v3.5h-2.207L523.083,416.833z M528.25,416.833h2.208v3.5h-2.208V416.833z
							 M530.458,416.833h2.208v3.5h-2.208V416.833z M532.667,416.833h2.208v3.5h-2.208V416.833z M536.438,416.833h2.208v3.5h-2.208
							V416.833z M543.125,416.833h2.208v3.5h-2.208V416.833z M540.854,416.833h2.208v3.5h-2.208V416.833z M490,416.833h2.208v3.5
							H490V416.833z M490,422.583h2.208v3.5H490V422.583z M492.208,422.583h2.208v3.5h-2.208V422.583z M494.417,422.583h2.208v3.5
							h-2.208V422.583z M496.687,422.583h2.208v3.5h-2.208V422.583z M501.104,422.583h2.208v3.5h-2.208V422.583z M505,422.583h2.208
							v3.5H505V422.583z M507.208,422.583h2.208v3.5h-2.208V422.583z M509.417,422.583h2.208v3.5h-2.208V422.583z M511.688,422.583
							h2.208v3.5h-2.208V422.583z M516.104,422.583h2.208v3.5h-2.208V422.583z M520.167,422.583h2.208v3.5h-2.208V422.583z
							 M522.375,422.583h2.208v3.5h-2.208V422.583z M524.583,422.583h2.208v3.5h-2.207L524.583,422.583z M526.854,422.583h2.208v3.5
							h-2.208V422.583z M531.27,422.583h2.21v3.5h-2.21V422.583z M536.438,422.583h2.208v3.5h-2.208V422.583z M538.646,422.583
							h2.208v3.5h-2.208V422.583z M540.854,422.583h2.208v3.5h-2.208V422.583z M543.125,422.583h2.208v3.5h-2.208V422.583z
							 M492.917,428.083h2.208v3.5h-2.208V428.083z M496.812,428.083h2.208v3.5h-2.208V428.083z"/>
						<path fill="#FFFFFF" stroke="#000000" stroke-miterlimit="10" d="M499.02,428.083h2.21v3.5h-2.21V428.083z"/>
						<path fill="#FFFFFF" stroke="#000000" stroke-miterlimit="10" d="M501.23,428.083h2.207v3.5h-2.208L501.23,428.083z
							 M503.5,428.083h2.208v3.5H503.5V428.083z M507.917,428.083h2.208v3.5h-2.208V428.083z M511.98,428.083h2.207v3.5h-2.208
							L511.98,428.083z M514.188,428.083h2.208v3.5h-2.208V428.083z M516.396,428.083h2.208v3.5h-2.208V428.083z M518.667,428.083
							h2.208v3.5h-2.208V428.083z M523.083,428.083h2.208v3.5h-2.207L523.083,428.083z M528.25,428.083h2.208v3.5h-2.208V428.083z
							 M530.458,428.083h2.208v3.5h-2.208V428.083z M532.667,428.083h2.208v3.5h-2.208V428.083z M536.438,428.083h2.208v3.5h-2.208
							V428.083z M543.125,428.083h2.208v3.5h-2.208V428.083z M540.854,428.083h2.208v3.5h-2.208V428.083z M490,428.083h2.208v3.5
							H490V428.083z M490,433.337h2.208v3.5H490V433.337z M492.208,433.337h2.208v3.5h-2.208V433.337z M494.417,433.337h2.208v3.5
							h-2.208V433.337z M496.687,433.337h2.208v3.5h-2.208V433.337z M501.104,433.337h2.208v3.5h-2.208V433.337z M505,433.337h2.208
							v3.5H505V433.337z M507.208,433.337h2.208v3.5h-2.208V433.337z M509.417,433.337h2.208v3.5h-2.208V433.337z M511.688,433.337
							h2.208v3.5h-2.208V433.337z M516.104,433.337h2.208v3.5h-2.208V433.337z M520.167,433.337h2.208v3.5h-2.208V433.337z
							 M522.375,433.337h2.208v3.5h-2.208V433.337z M524.583,433.337h2.208v3.5h-2.207L524.583,433.337z M526.854,433.337h2.208v3.5
							h-2.208V433.337z M531.27,433.337h2.21v3.5h-2.21V433.337z M536.438,433.337h2.208v3.5h-2.208V433.337z M538.646,433.337
							h2.208v3.5h-2.208V433.337z M540.854,433.337h2.208v3.5h-2.208V433.337z M543.125,433.337h2.208v3.5h-2.208V433.337z"/>
					</g>
					<g id="Fan1">
						<circle stroke="#000000" stroke-miterlimit="10" cx="500" cy="296.875" r="1.5"/>
						<g>
							<path d="M500.09,298.375c0,0,0.452,1.28,0.7,2.563c0.058,0.32,0.228,0.64,0.242,0.94c0,0.3-0.104,0.582-0.242,0.822
								c-0.25,0.48-0.7,0.8-0.7,0.8h-0.2c0,0-0.45-0.32-0.7-0.8c-0.138-0.24-0.24-0.52-0.242-0.82
								c0.013-0.3,0.183-0.622,0.242-0.942c0.248-1.28,0.7-2.563,0.7-2.563H500.09z"/>
						</g>
						<g>
							<path d="M501.454,297.253c0,0,1.358-0.034,2.653,0.126c0.323,0.043,0.68-0.02,0.97,0.06c0.285,0.094,0.52,0.278,0.706,0.484
								c0.38,0.387,0.545,0.913,0.545,0.913l-0.062,0.19c0,0-0.443,0.328-0.978,0.418c-0.27,0.057-0.57,0.068-0.855-0.024
								c-0.28-0.105-0.534-0.365-0.82-0.52c-1.142-0.632-2.22-1.458-2.22-1.458l0.06-0.19L501.454,297.253z"/>
						</g>
						<g>
							<path d="M500.81,295.61c0,0,0.387-1.303,0.94-2.486c0.14-0.293,0.19-0.652,0.356-0.903c0.178-0.24,0.425-0.408,0.678-0.52
								c0.485-0.242,1.037-0.237,1.037-0.237l0.163,0.118c0,0,0.175,0.524,0.096,1.06c-0.03,0.275-0.113,0.562-0.288,0.806
								c-0.187,0.235-0.513,0.394-0.75,0.62c-0.953,0.89-2.072,1.66-2.072,1.66l-0.16-0.117V295.61z"/>
						</g>
						<g>
							<path d="M499.046,295.714c0,0-1.12-0.77-2.073-1.662c-0.235-0.225-0.56-0.384-0.75-0.62c-0.174-0.243-0.256-0.53-0.286-0.805
								c-0.08-0.536,0.096-1.06,0.096-1.06l0.162-0.117c0,0,0.552-0.005,1.037,0.236c0.253,0.113,0.5,0.28,0.678,0.522
								c0.166,0.25,0.216,0.61,0.357,0.903c0.552,1.183,0.94,2.486,0.94,2.486l-0.16,0.118L499.046,295.714z"/>
						</g>
						<g>
							<path d="M498.6,297.424c0,0-1.078,0.826-2.22,1.458c-0.287,0.154-0.54,0.415-0.82,0.52c-0.286,0.092-0.584,0.08-0.855,0.025
								c-0.534-0.09-0.978-0.418-0.978-0.418l-0.062-0.19c0,0,0.166-0.527,0.545-0.914c0.186-0.205,0.42-0.39,0.706-0.484
								c0.29-0.08,0.647-0.017,0.97-0.06c1.295-0.16,2.653-0.127,2.653-0.127l0.06,0.19L498.6,297.424z"/>
						</g>
					</g>
					<g id="Fan2">
						<circle stroke="#000000" stroke-miterlimit="10" cx="517.667" cy="300.25" r="1.5"/>
						<g>
							<path d="M517.756,301.75c0,0,0.452,1.28,0.7,2.563c0.058,0.32,0.228,0.64,0.242,0.94c0,0.3-0.104,0.582-0.242,0.822
								c-0.25,0.48-0.7,0.8-0.7,0.8h-0.2c0,0-0.45-0.32-0.7-0.8c-0.138-0.24-0.24-0.52-0.242-0.82
								c0.013-0.3,0.183-0.622,0.242-0.942c0.248-1.28,0.7-2.563,0.7-2.563H517.756z"/>
						</g>
						<g>
							<path d="M519.12,300.628c0,0,1.36-0.034,2.654,0.126c0.323,0.044,0.68-0.02,0.97,0.06c0.285,0.095,0.52,0.28,0.706,0.485
								c0.38,0.386,0.545,0.912,0.545,0.912l-0.062,0.19c0,0-0.443,0.328-0.978,0.418c-0.27,0.057-0.57,0.068-0.855-0.024
								c-0.28-0.106-0.534-0.366-0.82-0.52c-1.142-0.633-2.22-1.46-2.22-1.46L519.12,300.628L519.12,300.628z"/>
						</g>
						<g>
							<path d="M518.476,298.984c0,0,0.388-1.302,0.94-2.485c0.14-0.294,0.192-0.653,0.357-0.904
								c0.178-0.242,0.425-0.41,0.678-0.522c0.486-0.24,1.038-0.236,1.038-0.236l0.162,0.118c0,0,0.175,0.523,0.096,1.06
								c-0.03,0.274-0.112,0.56-0.287,0.805c-0.188,0.236-0.514,0.395-0.75,0.62c-0.954,0.89-2.073,1.662-2.073,1.662l-0.16-0.118
								H518.476z"/>
						</g>
						<g>
							<path d="M516.713,299.09c0,0-1.12-0.772-2.073-1.663c-0.235-0.225-0.56-0.384-0.75-0.62c-0.174-0.243-0.256-0.53-0.286-0.805
								c-0.08-0.536,0.096-1.06,0.096-1.06l0.162-0.117c0,0,0.552-0.005,1.037,0.236c0.252,0.114,0.5,0.28,0.677,0.523
								c0.166,0.25,0.216,0.61,0.357,0.903c0.552,1.182,0.94,2.485,0.94,2.485l-0.16,0.12V299.09z"/>
						</g>
						<g>
							<path d="M516.268,300.8c0,0-1.08,0.825-2.22,1.457c-0.288,0.154-0.54,0.415-0.82,0.52c-0.287,0.092-0.585,0.08-0.856,0.025
								c-0.535-0.09-0.978-0.418-0.978-0.418l-0.062-0.19c0,0,0.166-0.526,0.545-0.913c0.186-0.204,0.42-0.388,0.706-0.483
								c0.29-0.08,0.647-0.017,0.97-0.06c1.295-0.16,2.653-0.127,2.653-0.127L516.268,300.8L516.268,300.8z"/>
						</g>
					</g>
					<g id="Fan3">
						<circle stroke="#000000" stroke-miterlimit="10" cx="535.253" cy="296.719" r="1.5"/>
						<g>
							<path d="M535.343,298.22c0,0,0.452,1.28,0.7,2.562c0.058,0.32,0.228,0.64,0.242,0.94c0,0.3-0.104,0.582-0.242,0.822
								c-0.25,0.48-0.7,0.8-0.7,0.8h-0.2c0,0-0.45-0.32-0.7-0.8c-0.138-0.24-0.24-0.52-0.242-0.82
								c0.014-0.3,0.184-0.622,0.243-0.942c0.248-1.28,0.7-2.563,0.7-2.563L535.343,298.22L535.343,298.22z"/>
						</g>
						<g>
							<path d="M536.708,297.097c0,0,1.358-0.034,2.653,0.126c0.324,0.044,0.68-0.02,0.97,0.06c0.286,0.095,0.52,0.28,0.707,0.485
								c0.38,0.387,0.545,0.913,0.545,0.913l-0.062,0.19c0,0-0.443,0.33-0.978,0.42c-0.27,0.056-0.57,0.067-0.855-0.025
								c-0.28-0.106-0.534-0.366-0.82-0.52c-1.142-0.633-2.22-1.46-2.22-1.46l0.06-0.188L536.708,297.097z"/>
						</g>
						<g>
							<path d="M536.062,295.453c0,0,0.388-1.302,0.94-2.485c0.14-0.293,0.192-0.652,0.357-0.903
								c0.177-0.242,0.424-0.41,0.677-0.522c0.485-0.24,1.037-0.236,1.037-0.236l0.162,0.118c0,0,0.175,0.523,0.096,1.06
								c-0.03,0.274-0.112,0.56-0.287,0.805c-0.187,0.235-0.513,0.394-0.75,0.62c-0.953,0.89-2.072,1.66-2.072,1.66L536.062,295.453
								z"/>
						</g>
						<g>
							<path d="M534.3,295.558c0,0-1.12-0.77-2.074-1.662c-0.235-0.225-0.56-0.384-0.75-0.62c-0.174-0.243-0.256-0.53-0.286-0.805
								c-0.08-0.535,0.096-1.058,0.096-1.058l0.162-0.118c0,0,0.552-0.005,1.037,0.236c0.253,0.113,0.5,0.28,0.678,0.522
								c0.166,0.25,0.216,0.61,0.357,0.903c0.552,1.182,0.94,2.485,0.94,2.485l-0.16,0.118V295.558z"/>
						</g>
						<g>
							<path d="M533.854,297.268c0,0-1.08,0.826-2.22,1.458c-0.288,0.154-0.54,0.415-0.82,0.52c-0.287,0.092-0.585,0.08-0.856,0.025
								c-0.534-0.09-0.978-0.417-0.978-0.417l-0.062-0.19c0,0,0.166-0.526,0.545-0.913c0.186-0.205,0.42-0.39,0.706-0.484
								c0.29-0.08,0.646-0.017,0.97-0.06c1.294-0.16,2.652-0.127,2.652-0.127l0.062,0.188L533.854,297.268z"/>
						</g>
					</g>
				</g>
			</g>
			<g id="Barriers">
				<g id="Barrier_Right">
					<path fill="#EDEDED" stroke="#000000" stroke-miterlimit="10" d="M336.25,431.5l40.375,12.167H558v-6.996H376.625
						l-40.375-11.537V431.5z"/>
				</g>
				<g id="Barrier_Left">
					<path fill="#EDEDED" stroke="#000000" stroke-miterlimit="10" d="M267.79,431.5l-41.294,12.167H41v-6.996h185.496
						l41.293-11.537L267.79,431.5z"/>
				</g>
			</g>
			<g id="Boat">
				<g id="Windows_1_">
					<path fill="none" stroke="#000000" stroke-miterlimit="10" d="M159.796,492.098c0,1.657-1.343,3-3,3h-3c-1.657,0-3-1.343-3-3
						s1.343-3,3-3h3C158.453,489.098,159.796,490.441,159.796,492.098z M147.944,492.098c0,1.657-1.343,3-3,3h-3
						c-1.657,0-3-1.343-3-3s1.343-3,3-3h3C146.601,489.098,147.944,490.441,147.944,492.098z M136.826,492.165c0,1.657-1.343,3-3,3
						h-3c-1.657,0-3-1.343-3-3s1.343-3,3-3h3C135.483,489.165,136.826,490.508,136.826,492.165z M124.974,492.165
						c0,1.657-1.343,3-3,3h-3c-1.657,0-3-1.343-3-3s1.343-3,3-3h3C123.631,489.165,124.974,490.508,124.974,492.165z"/>
					<circle fill="none" stroke="#000000" stroke-miterlimit="10" cx="80.796" cy="491.964" r="2.866"/>
					<circle fill="none" stroke="#000000" stroke-miterlimit="10" cx="168.989" cy="490.919" r="1.7"/>
					<path fill="none" stroke="#000000" stroke-miterlimit="10" d="M112.648,492.165c0,1.657-1.343,3-3,3h-3c-1.657,0-3-1.343-3-3
						s1.343-3,3-3h3C111.305,489.165,112.648,490.508,112.648,492.165z M100.796,492.165c0,1.657-1.343,3-3,3h-3
						c-1.657,0-3-1.343-3-3s1.343-3,3-3h3C99.453,489.165,100.796,490.508,100.796,492.165z M162.193,479.575
						c0,0.297-0.34,0.538-0.762,0.538h-9.253c-0.42,0-0.762-0.24-0.762-0.538v-6.534c0-0.296,0.34-0.537,0.762-0.537h9.254
						c0.422,0,0.763,0.24,0.763,0.538v6.535L162.193,479.575z M148.833,479.575c0,0.297-0.34,0.538-0.762,0.538h-9.253
						c-0.42,0-0.762-0.24-0.762-0.538v-6.534c0-0.296,0.34-0.537,0.762-0.537h9.254c0.422,0,0.763,0.24,0.763,0.538v6.535
						L148.833,479.575z M135.222,479.575c0,0.297-0.34,0.538-0.762,0.538h-9.254c-0.42,0-0.762-0.24-0.762-0.538v-6.534
						c0-0.296,0.34-0.537,0.762-0.537h9.254c0.42,0,0.762,0.24,0.762,0.538v6.535V479.575z M121.862,479.575
						c0,0.297-0.34,0.538-0.762,0.538h-9.254c-0.42,0-0.762-0.24-0.762-0.538v-6.534c0-0.296,0.34-0.537,0.762-0.537h9.254
						c0.42,0,0.762,0.24,0.762,0.538v6.535V479.575z M109.037,479.575c0,0.297-0.34,0.538-0.762,0.538H99.02
						c-0.42,0-0.76-0.24-0.76-0.538v-6.534c0-0.296,0.34-0.537,0.76-0.537h9.255c0.42,0,0.762,0.24,0.762,0.538v6.535
						L109.037,479.575z M171.708,472.503h-4.828 M166.88,472.503v7.61 M166.88,480.112h4.45 M171.33,480.112l0.378-7.61"/>
				</g>
				<g id="Main_x5F_Boat">
					<path fill="none" stroke="#000000" stroke-miterlimit="10" d="M73.335,504.82l-2.25-7.667c0,0,109.29-1.667,109.75-4.667
						s-4.81,12.333-4.81,12.333 M173.817,493.77l-2.627-11.642 M171.774,487.237h-95.94 M75.835,487.237l-1.033,9.856
						 M172.004,470.487H94.046 M94.046,470.487l-2.25,16.75 M171.19,482.128l0.814-11.64 M103.648,470.487l-1.602-5.25
						 M102.046,465.237h10.602 M112.648,465.237l1.648,5.25 M92.753,480.112H76.88 M76.88,480.112v7.125 M76.88,483.675h15.873
						 M79.647,480.112v7.125 M83.662,480.112v7.125 M88.546,480.112v7.125 M176.04,504.786l-4.047,9.416l-0.008,0.018
						 M73.218,504.82l2.192,8.058"/>
				</g>
				<g id="Text_x5F_Front">
					<g>
						<g>
							<path d="M165.344,496.383c0.207,0,0.37,0.078,0.48,0.17l-0.193,0.168c-0.08-0.07-0.176-0.104-0.286-0.104
								c-0.112,0-0.21,0.033-0.29,0.102c-0.08,0.068-0.122,0.15-0.124,0.246c0,0.096,0.037,0.18,0.117,0.25s0.175,0.105,0.29,0.107
								c0.175,0.004,0.31-0.088,0.37-0.197c-0.153,0-0.23-0.002-0.384-0.004c0-0.09,0-0.134,0.002-0.222
								c0.277,0.003,0.415,0.003,0.692,0.004c0.02,0.218-0.064,0.377-0.198,0.49c-0.137,0.113-0.3,0.168-0.49,0.164
								s-0.35-0.065-0.482-0.18c-0.133-0.117-0.197-0.254-0.194-0.415c0.003-0.158,0.072-0.293,0.207-0.407
								c0.135-0.113,0.295-0.17,0.483-0.17L165.344,496.383z M167.248,496.537c0.136,0.117,0.205,0.26,0.208,0.427
								c0.003,0.168-0.062,0.313-0.195,0.432c-0.132,0.12-0.294,0.177-0.483,0.176c-0.19,0-0.354-0.06-0.487-0.177
								c-0.135-0.118-0.202-0.258-0.202-0.422s0.067-0.304,0.2-0.422c0.134-0.118,0.292-0.18,0.48-0.182s0.344,0.052,0.48,0.17
								L167.248,496.537z M166.478,496.717c-0.08,0.072-0.12,0.156-0.118,0.254c0,0.1,0.04,0.184,0.122,0.255
								c0.08,0.07,0.178,0.105,0.292,0.105c0.113,0,0.21-0.036,0.29-0.106c0.08-0.07,0.12-0.157,0.117-0.258
								c0-0.1-0.042-0.185-0.123-0.255c-0.08-0.07-0.177-0.103-0.29-0.1c-0.114,0-0.21,0.036-0.288,0.107L166.478,496.717z
								 M167.828,496.352c0.01,0.387,0.013,0.58,0.02,0.967l0.545-0.01l0.007,0.244c-0.327,0.005-0.49,0.007-0.82,0.01l-0.02-1.204
								l0.268-0.008V496.352z M168.837,496.316c0.21-0.01,0.378,0.06,0.496,0.16c0.124,0.105,0.19,0.25,0.198,0.432
								c0.01,0.18-0.045,0.33-0.162,0.444c-0.13,0.125-0.292,0.19-0.49,0.193l-0.36,0.007l-0.037-1.222l0.357-0.014H168.837z
								 M168.845,496.561l-0.087,0.004l0.024,0.738c0.036,0,0.054,0,0.09-0.002c0.245-0.006,0.398-0.16,0.39-0.383
								c-0.01-0.222-0.176-0.366-0.417-0.356L168.845,496.561z M170.425,496.23l0.014,0.253l-0.54,0.03l0.013,0.25
								c0.162-0.007,0.243-0.01,0.405-0.02l0.013,0.254l-0.405,0.018l0.012,0.252l0.544-0.022c0.006,0.1,0.01,0.15,0.015,0.252
								c-0.327,0.013-0.49,0.02-0.818,0.03l-0.055-1.252c0.32-0.016,0.482-0.025,0.803-0.045H170.425z M171.39,496.88
								c-0.017-0.285-0.027-0.427-0.045-0.712l0.27-0.02l0.09,1.318l-0.862-0.69l0.04,0.706l-0.272,0.012l-0.07-1.294
								C170.879,496.47,171.049,496.605,171.39,496.88L171.39,496.88z M173.078,496.023l0.023,0.264
								c-0.214,0.02-0.32,0.03-0.536,0.046c0.008,0.105,0.013,0.158,0.02,0.264l0.405-0.033l0.02,0.264
								c-0.16,0.013-0.242,0.02-0.405,0.03l0.042,0.526l-0.272,0.018l-0.1-1.306C172.597,496.068,172.757,496.053,173.078,496.023
								L173.078,496.023z M173.462,495.99l0.096,1.06l0.542-0.046l0.026,0.267c-0.326,0.028-0.49,0.04-0.816,0.065l-0.115-1.32
								L173.462,495.99z M174.666,495.834l0.76,1.32c-0.117,0.01-0.176,0.016-0.293,0.028l-0.114-0.197l-0.463,0.044l-0.07,0.212
								l-0.295,0.025c0.194-0.568,0.29-0.855,0.474-1.433L174.666,495.834z M174.886,496.754c-0.06-0.11-0.092-0.163-0.152-0.272
								l-0.095,0.298l0.246-0.025L174.886,496.754z M176.148,496.587c0.218-0.4,0.326-0.603,0.537-1.013l0.182,1.423
								c-0.11,0.013-0.163,0.02-0.27,0.03l-0.073-0.573c-0.127,0.24-0.19,0.358-0.32,0.595l-0.454-0.505l0.066,0.568
								c-0.11,0.01-0.163,0.017-0.272,0.028l-0.158-1.395L176.148,496.587L176.148,496.587z M177.652,495.465l0.04,0.282
								l-0.535,0.076l0.038,0.282l0.402-0.055c0.016,0.113,0.023,0.17,0.04,0.282l-0.405,0.054l0.038,0.282
								c0.216-0.027,0.324-0.04,0.54-0.07l0.04,0.28c-0.326,0.043-0.49,0.063-0.814,0.1l-0.182-1.397
								c0.32-0.044,0.478-0.067,0.798-0.115L177.652,495.465z"/>
						</g>
					</g>
				</g>
				<g id="Text_x5F_Stern">
					<text transform="matrix(1 0 0 1 73.335 500.82)" font-family="'LemonMilk'" font-size="2">London</text>
				</g>
				<g id="Fixed_Sea_Layer">
					
						<linearGradient id="SVGID_1_" gradientUnits="userSpaceOnUse" x1="132.8045" y1="121.235" x2="132.8045" y2="108.555" gradientTransform="matrix(1 0 0 -1 -8.36 624.055)">
						<stop  offset="0" style="stop-color:#FFFFFF;stop-opacity:0"/>
						<stop  offset="0.156" style="stop-color:#FFFFFF"/>
					</linearGradient>
					<path fill="url(#SVGID_1_)" d="M62.383,502.82h124.123v12.68H62.383V502.82z"/>
				</g>
				<g id="Dynamic_wave1">
					<path fill="none" stroke="#000000" stroke-miterlimit="10" d="M169.105,505.75c0,0,10.69-3.875,14.19,0 M169.105,506.543
						c7.816,0.32,10.69-3.875,14.19,0"/>
					<path fill="none" stroke="#000000" stroke-miterlimit="10" d="M169.105,505.75c0,0,10.69-3.875,14.19,0 M169.105,506.543
						c7.816,0.32,10.69-3.875,14.19,0"/>
				</g>
				<g id="Dynamic_Wave2">
					<path fill="none" stroke="#000000" stroke-miterlimit="10" d="M172.207,504.89c0,0-6.717,2.374-12.978,0
						c-6.262-2.376-17.75,0-17.75,0s-17.126,2.533-21.25,0c-4.126-2.535-19.75,0-19.75,0s-12.126,3.783-17,0
						c-4.876-3.785-11.962,0-11.962,0"/>
					<path fill="none" stroke="#000000" stroke-miterlimit="10" d="M172.207,505.75c0,0-5.986,2.52-12.978,0
						c-6.993-2.52-17.75,0-17.75,0s-11.25,4.25-21.25,0s-19.75,0-19.75,0s-14,5.5-17,0s-11.962,0-11.962,0"/>
				</g>
				<g id="Dynamic_Wave3">
					<path fill="none" stroke="#000000" stroke-miterlimit="10" d="M75.835,504.996c0,0-11.62-1.463-20.265,5.277 M73.335,505.056
						c0,0-11.875-1.906-20.265,3.367"/>
					<path fill="none" stroke="#000000" stroke-miterlimit="10" d="M75.835,504.996c0,0-11.62-1.463-20.265,5.277 M73.335,505.056
						c0,0-11.875-1.906-20.265,3.367"/>
				</g>
			</g>
			<g id="Buttons">
				<g id="AboutMe">
					<g id="button_shadow_AboutMe">
						<path fill="#E5C672" d="M545,477c0,1.105-0.895,2-2,2h-87.333c-1.105,0-2-0.895-2-2v-20c0-1.105,0.895-2,2-2H543
							c1.105,0,2,0.895,2,2V477z"/>
					</g>
					<g id="button_AboutMe">
						<path fill="#FFDC7F" d="M545,474c0,1.105-0.895,2-2,2h-87.333c-1.105,0-2-0.895-2-2v-20c0-1.105,0.895-2,2-2H543
							c1.105,0,2,0.895,2,2V474z"/>
					</g>
					<g id="txt_AboutMe">
						<text transform="matrix(1 0 0 1 471.5 468)" fill="#808080" font-family="'ArialMT'" font-size="11.339">About Me</text>
					</g>
				</g>
				<g id="Awards">
					<g id="button_shadow">
						<path fill="#65CCB0" d="M545,509c0,1.105-0.895,2-2,2h-87.333c-1.105,0-2-0.895-2-2v-20c0-1.105,0.895-2,2-2H543
							c1.105,0,2,0.895,2,2V509z"/>
					</g>
					<g id="button_Awards">
						<path fill="#7FFFDC" d="M545,506c0,1.105-0.895,2-2,2h-87.333c-1.105,0-2-0.895-2-2v-20c0-1.105,0.895-2,2-2H543
							c1.105,0,2,0.895,2,2V506z"/>
					</g>
					<g id="txt_Awards">
						<text transform="matrix(1 0 0 1 462.5 500)" fill="#808080" font-family="'ArialMT'" font-size="11.339">Toggle labels</text>
					</g>
				</g>
			</g>
			<g id="Text_For_Links">
				<g id="txtLinkedIn">
					
						<text transform="matrix(0.2588 -0.9659 0.9659 0.2588 215.6614 259.4635)" fill="#FF7FA2" font-family="'ArialMT'" font-size="11.339">Linked in</text>
				</g>
				<g id="txtTwitter">
					
						<text transform="matrix(0.2588 -0.9659 0.9659 0.2588 275.4641 352.9674)" fill="#808080" font-family="'ArialMT'" font-size="11.339">twitter</text>
				</g>
				<g id="txtGithub">
					
						<text transform="matrix(0.9659 0.2588 -0.2588 0.9659 387.9294 180.5451)" fill="#567A48" font-family="'ArialMT'" font-size="11.339">codepen</text>
				</g>
				<g id="txtInstagram">
					<text transform="matrix(1 0 0 1 294.334 253)" fill="#B28B23" font-family="'ArialMT'" font-size="11.339">instagram</text>
				</g>
				<g id="txtWordpress">
					<text transform="matrix(1 0 0 1 413 454.334)" fill="#60A390" font-family="'ArialMT'" font-size="11.339">blog</text>
				</g>
				<g id="txtPlotly">
					<text transform="matrix(1 0.0073 -0.0073 1 492.572 186.715)" fill="#A26CB7" font-family="'ArialMT'" font-size="11.339">some</text>
					<text transform="matrix(1 0.0073 -0.0073 1 520.2994 186.9174)" font-family="'ArialMT'" font-size="12"> </text>
					<text transform="matrix(1 0.0073 -0.0073 1 492.4727 200.321)" fill="#A26CB7" font-family="'ArialMT'" font-size="11.339">statistics</text>
				</g>
			</g>
		</g>
		<g id="Title_Area">
			<g id="Name_Text">
				<text transform="matrix(1 0 0 1 116 122)" fill="#808080" font-family="'Arial-BoldMT'" font-size="36.85">BEN MONEY-COOMES</text>
			</g>
			<g id="Description_Text">
				<text transform="matrix(1.0522 0 0 1 62.0001 143.0002)" fill="#808080" font-family="'Arial-BoldMT'" font-size="11.339">here&apos;s most of my online presence condensed into one convenient page</text>
			</g>
			<g id="Skyline_Text">
				<text transform="matrix(1.0522 0 0 1 509.9996 143.0002)" fill="#606060" font-family="'Arial-BoldMT'" font-size="11.339">skyline</text>
			</g>
			<g id="Scribble">
				<path fill="none" stroke="#FFDC7F" stroke-width="1.417" stroke-miterlimit="10" d="M470,140
					c3.746,1.63,12.716-4.01,15.96-5.426c-3.996,0.017-9.725,4.6-13.044,6.936c3.877,1.463,14.732-2.095,17.91-5.055
					c-2.507,0.838-5.036,2.43-6.788,4.444c1.566-0.087,3.306,0.25,4.886,0.164c0.238,4.675-3.923,8.056-7.384,9.85
					c4.193-0.306,9.517-2.112,13.295-4.44c-4.055,0.097-10.32,2.348-13.77,1.342c0.752-2.75,3.336-5.646,4.38-8.228
					c-5.387-0.316-11.542-0.11-16.415,0.802c7.05,0.52,13.822-1.106,20.83-0.4c-3.045,0.267-5.89,1.487-8.683,2.037
					c7.03,0.554,14.142-4.565,20.172-7.09c-3.374,2.235-7.524,3.828-11.35,4.564"/>
			</g>
			<g id="Line_For_Hiding_Text">
				<path fill="none" stroke="#7FFFDC" stroke-width="2.835" stroke-miterlimit="10" d="M113,128h402"/>
			</g>
			<g id="Box_For_Hiding">
				<path fill="none" d="M113,90h401v38H113V90z"/>
			</g>
		</g>
	</g>
</g>
<g id="Modified_x5F_github">
	<path fill="#FFFFFF" stroke="#1D1D1B" stroke-miterlimit="10" d="M501.005,228.149c0-4.774,1.689-8.85,5.067-12.228
		c3.378-3.378,7.454-5.067,12.228-5.067c4.774,0,8.85,1.689,12.228,5.067c3.378,3.378,5.067,7.454,5.067,12.228
		c0,4.774-1.689,8.85-5.067,12.228c-3.378,3.378-7.454,5.067-12.228,5.067c-4.774,0-8.85-1.689-12.228-5.067
		C502.694,236.998,501.005,232.923,501.005,228.149L501.005,228.149z M502.896,228.149c0,4.234,1.509,7.859,4.526,10.877
		c3.018,3.018,6.643,4.526,10.877,4.526c4.234,0,7.859-1.509,10.877-4.526c3.018-3.018,4.526-6.643,4.526-10.877
		s-1.509-7.859-4.526-10.877c-3.018-3.018-6.643-4.526-10.877-4.526c-4.234,0-7.859,1.509-10.877,4.526
		C504.405,220.289,502.896,223.915,502.896,228.149L502.896,228.149z M507.761,231.864c-0.09-0.09-0.09-0.18,0-0.27
		c0.18-0.18,0.405-0.248,0.676-0.203c0.27,0.045,0.428,0.09,0.473,0.135c0.315,0.135,0.664,0.439,1.047,0.912
		c0.383,0.473,0.687,0.799,0.912,0.98c1.081,0.901,2.184,0.968,3.31,0.203c0.09-0.315,0.236-0.585,0.439-0.811
		c0.203-0.225,0.394-0.383,0.574-0.473c0.18-0.09,0.495-0.225,0.946-0.405c-1.486-0.135-2.691-0.394-3.614-0.777
		c-0.923-0.383-1.655-0.867-2.196-1.452c-0.721-0.811-1.16-1.869-1.317-3.175c-0.158-1.306-0.056-2.5,0.304-3.581
		c0.27-0.676,0.653-1.284,1.148-1.824c-0.36-1.126-0.293-2.41,0.203-3.851c1.441,0.09,2.747,0.585,3.918,1.486
		c2.252-0.585,4.594-0.608,7.026-0.068c0.315-0.225,0.799-0.507,1.452-0.844c0.653-0.338,1.475-0.529,2.466-0.574
		c0.18,0.495,0.304,1.081,0.372,1.756s0.034,1.306-0.101,1.892c1.036,1.081,1.576,2.522,1.621,4.324
		c0,1.441-0.248,2.635-0.743,3.581c-0.495,0.946-1.374,1.734-2.635,2.364c-0.856,0.405-1.982,0.653-3.378,0.743
		c0.631,0.315,1.092,0.642,1.385,0.98s0.484,0.867,0.574,1.588v2.128c0,0,0.022,0.687,0.068,2.061
		c0.135,0.225,0.293,0.417,0.473,0.574c0.18,0.158,0.338,0.27,0.473,0.338c0.135,0.068,0.18,0.169,0.135,0.304
		c-0.045,0.135-0.225,0.203-0.54,0.203c-0.766,0-1.374-0.27-1.824-0.811c-0.135-0.225-0.203-0.495-0.203-0.811v-3.243
		c0-0.36-0.09-0.619-0.27-0.777c-0.18-0.158-0.36-0.259-0.54-0.304v4.256c0,0.766,0.09,1.261,0.27,1.486
		c0.18,0.225,0.293,0.45,0.338,0.676c0.045,0.045,0.011,0.079-0.101,0.101c-0.113,0.023-0.304-0.011-0.574-0.101
		c-0.586-0.135-0.991-0.439-1.216-0.912c-0.225-0.473-0.338-0.98-0.338-1.52v-4.189h-0.878v4.189c0,0.54-0.113,1.058-0.338,1.554
		c-0.315,0.631-0.901,0.968-1.757,1.013c-0.135-0.045-0.203-0.09-0.203-0.135c0.045-0.045,0.18-0.27,0.405-0.676
		c0.045-0.09,0.101-0.27,0.169-0.54c0.068-0.27,0.101-0.585,0.101-0.946v-4.256c-0.18,0.045-0.349,0.146-0.507,0.304
		c-0.158,0.158-0.237,0.417-0.237,0.777v3.243c0,0.315-0.068,0.585-0.203,0.811c-0.405,0.54-1.013,0.811-1.824,0.811
		c-0.315,0-0.495-0.068-0.54-0.203c-0.045-0.09-0.034-0.169,0.034-0.236s0.169-0.146,0.304-0.236s0.225-0.158,0.27-0.203
		c0.18-0.135,0.315-0.315,0.405-0.54c0.135-0.18,0.169-0.653,0.101-1.419s-0.079-1.261-0.034-1.486
		c-1.171,0.405-2.365,0.203-3.581-0.608c-0.36-0.36-0.721-0.878-1.081-1.554C509.112,233.125,508.571,232.54,507.761,231.864
		L507.761,231.864z"/>
</g>
</svg>
